<svg width="105" height="65" viewBox="0 0 105 65" fill="none" xmlns="http://www.w3.org/2000/svg">
<path d="M17.0056 59.2383C16.9163 59.3092 16.8665 59.4037 16.8507 59.5193C16.8376 59.6454 16.8665 59.7426 16.9426 59.8083C17.0161 59.8766 17.1132 59.9107 17.2261 59.9107C17.339 59.9107 17.4413 59.8766 17.5332 59.8083C17.6225 59.74 17.675 59.6428 17.6907 59.5193C17.7038 59.4037 17.6723 59.3092 17.6015 59.2383C17.528 59.1673 17.4335 59.1332 17.3153 59.1332C17.1972 59.1306 17.0948 59.1673 17.0056 59.2383Z" fill="#00F5A4"/>
<path d="M18.0017 59.2384C17.9124 59.3093 17.8626 59.4039 17.8468 59.5194C17.8337 59.6455 17.8626 59.7427 17.9387 59.8084C18.0122 59.8767 18.1093 59.9108 18.2222 59.9108C18.3351 59.9108 18.4374 59.8767 18.5293 59.8084C18.6212 59.7401 18.6737 59.6429 18.6868 59.5194C18.6999 59.4039 18.6711 59.3093 18.6002 59.2384C18.5293 59.1675 18.4322 59.1333 18.3114 59.1333C18.1933 59.1307 18.0909 59.1675 18.0017 59.2384Z" fill="#00F5A4"/>
<path d="M20.3192 63.2782C20.2037 63.2782 20.0987 63.315 20.0095 63.3859C19.9202 63.4568 19.8677 63.5514 19.8546 63.6696C19.8415 63.7957 19.8704 63.8902 19.9491 63.9585C20.0252 64.0242 20.1197 64.0584 20.23 64.0584C20.3402 64.0584 20.4426 64.0242 20.5345 63.9585C20.6264 63.8929 20.6789 63.7957 20.692 63.6696C20.7051 63.554 20.6762 63.4594 20.6054 63.3859C20.5345 63.315 20.4374 63.2782 20.3192 63.2782Z" fill="#00F5A4"/>
<path d="M19.3192 63.2782C19.2037 63.2782 19.0987 63.315 19.0095 63.3859C18.9202 63.4568 18.8677 63.5514 18.8546 63.6696C18.8415 63.7957 18.8704 63.8902 18.9491 63.9585C19.0252 64.0242 19.1197 64.0584 19.23 64.0584C19.3402 64.0584 19.4426 64.0242 19.5345 63.9585C19.6264 63.8929 19.6789 63.7957 19.6946 63.6696C19.7077 63.554 19.6762 63.4594 19.6054 63.3859C19.5319 63.315 19.4347 63.2782 19.3192 63.2782Z" fill="#00F5A4"/>
<path d="M21.549 62.3116H21.1894H20.9767H20.3415L20.562 60.3625H19.7981L19.5776 62.3116H18.8216H18.6142H18.399L18.6457 60.1313H17.8818L17.8556 60.3625H17.8241C17.5695 60.3625 17.3358 60.3967 17.1258 60.465C16.9158 60.5333 16.7321 60.6278 16.5772 60.7486C16.4223 60.8695 16.2989 61.014 16.2071 61.1794C16.1152 61.3449 16.0574 61.5262 16.0364 61.7232C16.0102 61.9517 16.0312 62.1487 16.0942 62.3195C16.1572 62.4902 16.2569 62.632 16.3882 62.745C16.5221 62.8579 16.6822 62.942 16.8764 62.9972C17.0681 63.0497 17.2833 63.0786 17.5196 63.0786H18.5328H18.7402H20.8954H21.108H22.2315L22.5386 60.3651H21.7747L21.549 62.3116ZM17.6351 62.3116H17.4146C17.3253 62.3116 17.2413 62.2984 17.16 62.2722C17.0786 62.2459 17.0103 62.2091 16.9526 62.1592C16.8948 62.1093 16.8528 62.0489 16.8239 61.978C16.7951 61.9071 16.7872 61.8204 16.7977 61.7232C16.8082 61.6286 16.8371 61.5446 16.887 61.471C16.9342 61.4001 16.9946 61.337 17.0681 61.2871C17.1416 61.2372 17.223 61.1978 17.3122 61.1689C17.4015 61.14 17.4907 61.1269 17.58 61.1269H17.769L17.6351 62.3116Z" fill="#00F5A4"/>
<path d="M22.2602 59.283C22.1368 59.283 22.0292 59.3197 21.9373 59.3933C21.8454 59.4668 21.7903 59.564 21.7772 59.6849C21.7614 59.8162 21.7956 59.9186 21.8769 59.9869C21.9583 60.0552 22.0554 60.0894 22.1683 60.0894C22.2812 60.0894 22.3862 60.0552 22.4833 59.9869C22.5804 59.9186 22.6356 59.8162 22.6513 59.6849C22.6644 59.564 22.6329 59.4695 22.5568 59.3933C22.4807 59.3197 22.3836 59.283 22.2602 59.283Z" fill="#00F5A4"/>
<path d="M24.5836 60.3625C24.3474 60.3625 24.1269 60.3941 23.9195 60.4545C23.7121 60.5149 23.531 60.6042 23.3709 60.7224C23.2108 60.838 23.0821 60.9798 22.9797 61.148C22.8774 61.3161 22.8144 61.5052 22.7907 61.718C22.7645 61.957 22.7829 62.1645 22.8511 62.3379C22.9168 62.5113 23.0191 62.6531 23.1556 62.7608C23.2921 62.8711 23.4575 62.9499 23.6491 62.9998C23.8408 63.0497 24.0508 63.076 24.2791 63.076H24.2844C24.2791 63.1049 24.2608 63.1364 24.2345 63.1785C24.2056 63.2179 24.1715 63.2494 24.1295 63.2704C24.0875 63.2914 24.035 63.3072 23.9694 63.3151C23.9064 63.3229 23.8303 63.3256 23.7436 63.3256C23.6386 63.3256 23.5363 63.3177 23.4339 63.2967C23.3315 63.2783 23.195 63.2415 23.0217 63.1863L22.9903 63.9639L23.2134 64.0295C23.2685 64.0427 23.3184 64.0532 23.3709 64.0611C23.4208 64.0689 23.4733 64.0768 23.5284 64.0821C23.5809 64.0873 23.6413 64.09 23.7043 64.09C23.9379 64.09 24.1374 64.0584 24.3054 63.998C24.4734 63.9376 24.6125 63.8509 24.7201 63.738C24.8304 63.625 24.9118 63.4937 24.9695 63.3413C25.0273 63.189 25.064 63.0235 25.085 62.8422L25.3685 60.3625H24.5836ZM24.3868 62.3116H24.1741C24.077 62.3116 23.9851 62.2985 23.9038 62.2722C23.8224 62.246 23.7541 62.2092 23.699 62.1593C23.6439 62.1094 23.6045 62.0489 23.5783 61.9754C23.552 61.9018 23.5441 61.8152 23.5546 61.718C23.5651 61.6287 23.5914 61.5472 23.636 61.4763C23.6806 61.4054 23.7384 61.3423 23.8066 61.2924C23.8749 61.2425 23.9536 61.2031 24.0429 61.1716C24.1295 61.1427 24.2188 61.1269 24.308 61.1269H24.5206L24.3868 62.3116Z" fill="#00F5A4"/>
<path d="M28.988 59.4168C28.8988 59.4878 28.8489 59.5823 28.8331 59.6979C28.82 59.824 28.8489 59.9212 28.925 59.9895C29.0011 60.0578 29.0956 60.0919 29.2085 60.0919C29.3214 60.0919 29.4238 60.0578 29.5156 59.9895C29.6049 59.9212 29.6574 59.824 29.6731 59.6979C29.6863 59.5823 29.6574 59.4878 29.5839 59.4168C29.513 59.3459 29.4159 59.3118 29.2978 59.3118C29.1796 59.3118 29.0773 59.3459 28.988 59.4168Z" fill="#00F5A4"/>
<path d="M27.988 59.4168C27.8988 59.4878 27.8463 59.5823 27.8331 59.6979C27.82 59.824 27.8489 59.9212 27.925 59.9895C28.0011 60.0578 28.0956 60.0919 28.2085 60.0919C28.3214 60.0919 28.4238 60.0578 28.5156 59.9895C28.6049 59.9212 28.6574 59.824 28.6731 59.6979C28.6863 59.5823 28.6548 59.4878 28.5839 59.4168C28.5104 59.3459 28.4159 59.3118 28.2978 59.3118C28.1823 59.3118 28.0773 59.3459 27.988 59.4168Z" fill="#00F5A4"/>
<path d="M34.2258 59.2198L33.8767 62.3116H33.6326H33.4252H33.1391L33.1837 61.907C33.2047 61.71 33.2047 61.5288 33.1837 61.3607C33.1601 61.1926 33.1023 61.0533 33.0078 60.9404C32.9002 60.8117 32.7663 60.7171 32.6088 60.6619C32.4513 60.6042 32.2649 60.5779 32.0497 60.5779H30.7923L31.6586 59.2225H30.8291L29.9024 60.6225C29.8919 60.7802 29.9024 60.9141 29.9339 61.0244C29.9654 61.1348 30.0127 61.2398 30.0757 61.337H32.0287C32.1022 61.337 32.1678 61.3528 32.2256 61.3817C32.2833 61.4106 32.3279 61.4474 32.3568 61.4946C32.3883 61.5419 32.4093 61.5945 32.4224 61.6575C32.4329 61.7205 32.4356 61.7941 32.4251 61.8808L32.3752 62.3142H29.7187H29.5061H28.8708L29.0913 60.3651H28.3274L28.1069 62.3142H27.3562H27.1435H26.8574L27.0779 60.3651H26.314L26.0227 62.9367C26.0069 63.0838 25.9754 63.1863 25.9255 63.2441C25.8783 63.3019 25.7995 63.3281 25.6919 63.3281C25.6473 63.3281 25.6 63.3255 25.558 63.3202C25.5134 63.315 25.4373 63.2966 25.3323 63.2703L25.3008 64.04C25.3664 64.061 25.4294 64.0768 25.4898 64.0846C25.5502 64.0925 25.6132 64.0952 25.6762 64.0952C25.999 64.0952 26.2458 64.0085 26.4217 63.8377C26.5949 63.667 26.7104 63.4148 26.7629 63.0812H27.0569H27.2695H29.4194H29.6321H33.3386H33.546H34.554L34.9031 59.9895H35.2023L35.289 59.2251H34.2258V59.2198Z" fill="#00F5A4"/>
<path d="M37.35 61.7337C37.3395 61.8388 37.3133 61.9255 37.2739 61.9938C37.2345 62.0621 37.1873 62.1199 37.1295 62.1671C37.0665 62.2118 36.9904 62.2486 36.9064 62.2722C36.8198 62.2959 36.7279 62.309 36.6308 62.309H35.25L35.2553 63.0734H36.4103C36.6649 63.0734 36.8933 63.0471 37.098 62.9946C37.3028 62.9421 37.4813 62.8527 37.6361 62.7267C37.7726 62.6111 37.8803 62.4613 37.9616 62.2775C38.043 62.0936 38.0929 61.9045 38.1165 61.7075L38.3501 59.6376H38.6494L38.736 58.8732H37.6729L37.35 61.7337Z" fill="#00F5A4"/>
<path d="M35.5001 63.5829C35.4738 63.8114 35.5132 63.9716 35.6182 64.0688C35.7232 64.166 35.8728 64.2133 36.0697 64.2133H36.3584L36.3952 63.885H36.1432C36.0697 63.885 36.0224 63.8718 35.9988 63.8429C35.9752 63.814 35.9647 63.793 35.9673 63.7746H36.5579L36.6104 63.3097H35.5342L35.5001 63.5829Z" fill="#00F5A4"/>
<path d="M36.9765 59.6533H36.2126L35.9238 62.2013H36.6877L36.9765 59.6533Z" fill="#00F5A4"/>
<path d="M38.9531 63.0761H39.717L40.1528 59.22H39.3863L38.9531 63.0761Z" fill="#00F5A4"/>
<path d="M43.1792 60.3336C43.2921 60.3336 43.3945 60.2995 43.4863 60.2312C43.5782 60.1629 43.6307 60.0657 43.6438 59.9396C43.657 59.824 43.6281 59.7295 43.5546 59.6585C43.4811 59.5876 43.3866 59.5535 43.2685 59.5535C43.1503 59.5535 43.048 59.5876 42.9587 59.6585C42.8695 59.7295 42.8196 59.824 42.8038 59.9396C42.7907 60.0657 42.8196 60.1629 42.8957 60.2312C42.9718 60.2995 43.0663 60.3336 43.1792 60.3336Z" fill="#00F5A4"/>
<path d="M44.4863 60.2339C44.5756 60.1656 44.6307 60.0684 44.6438 59.9423C44.657 59.8267 44.6281 59.7321 44.5546 59.6612C44.4837 59.5903 44.3866 59.5562 44.2685 59.5562C44.153 59.5562 44.048 59.5903 43.9587 59.6612C43.8695 59.7321 43.8196 59.8267 43.8038 59.9423C43.7907 60.0684 43.8196 60.1656 43.8957 60.2339C43.9718 60.3022 44.0663 60.3363 44.1792 60.3363C44.2921 60.3337 44.3945 60.2995 44.4863 60.2339Z" fill="#00F5A4"/>
<path d="M44.4583 62.3117H43.2298C43.0933 62.3117 42.9726 62.3012 42.8623 62.2775C42.7521 62.2539 42.6654 62.2119 42.5972 62.1514C42.5421 62.0989 42.5053 62.028 42.4896 61.9387C42.4738 61.8494 42.4738 61.739 42.4869 61.6077L42.5841 60.754H41.8202L41.7152 61.6839C41.6942 61.8783 41.6968 62.0621 41.723 62.2408C41.7519 62.4194 41.8202 62.5639 41.9304 62.6794C41.996 62.7504 42.0669 62.8108 42.1457 62.8607C42.2218 62.9106 42.3084 62.9526 42.4029 62.9841C42.4974 63.0157 42.6024 63.0393 42.7153 63.0524C42.8282 63.0656 42.9568 63.0734 43.0986 63.0734H45.1382L45.4453 60.36H44.6814L44.4583 62.3117Z" fill="#00F5A4"/>
<path d="M49.8004 60.1943C49.8975 60.126 49.9526 60.0236 49.9684 59.8923C49.9815 59.7714 49.95 59.6769 49.8739 59.6007C49.7978 59.5271 49.698 59.4904 49.5746 59.4904C49.4513 59.4904 49.3436 59.5271 49.2518 59.6007C49.1599 59.6742 49.1048 59.7714 49.0916 59.8923C49.0759 60.0236 49.11 60.126 49.1914 60.1943C49.2728 60.2626 49.3699 60.2968 49.4828 60.2968C49.5983 60.2968 49.7033 60.2626 49.8004 60.1943Z" fill="#00F5A4"/>
<path d="M50.8348 60.9561C50.7272 60.8274 50.5933 60.7329 50.4358 60.6777C50.2783 60.6199 50.0919 60.5936 49.8767 60.5936H48.5327L48.5589 60.3625H47.795L47.5745 62.3116H47.3357H47.123H46.745L47.0942 59.2198H46.3303L45.8945 63.076H47.0364H47.249H50.8821L51.0133 61.9228C51.0343 61.7258 51.0343 61.5445 51.0133 61.3764C50.9871 61.2109 50.9293 61.0691 50.8348 60.9561ZM50.2022 62.3116H48.3384L48.446 61.3528H49.8557C49.9292 61.3528 49.9948 61.3685 50.0526 61.3974C50.1103 61.4263 50.1549 61.4631 50.1838 61.5104C50.2153 61.555 50.2363 61.6102 50.2494 61.6733C50.2599 61.7363 50.2626 61.8098 50.2521 61.8965L50.2022 62.3116Z" fill="#00F5A4"/>
<path d="M53.7922 62.3116H53.0362H52.8288H52.4482L52.7973 59.2198H52.0308L51.5977 63.076H52.7422H52.9495H54.4694L54.7766 60.3625H54.0127L53.7922 62.3116Z" fill="#00F5A4"/>
<path d="M54.2919 63.2782C54.1764 63.2782 54.0714 63.315 53.9821 63.3859C53.8929 63.4568 53.8404 63.5514 53.8273 63.6696C53.8141 63.7957 53.843 63.8902 53.9218 63.9585C53.9979 64.0242 54.0924 64.0584 54.2026 64.0584C54.3129 64.0584 54.4153 64.0242 54.5071 63.9585C54.599 63.8929 54.6515 63.7957 54.6673 63.6696C54.6804 63.554 54.6515 63.4594 54.578 63.3859C54.5071 63.315 54.41 63.2782 54.2919 63.2782Z" fill="#00F5A4"/>
<path d="M53.2898 63.2782C53.1743 63.2782 53.0693 63.315 52.98 63.3859C52.8908 63.4568 52.8383 63.5514 52.8252 63.6696C52.812 63.7957 52.8435 63.8902 52.9197 63.9585C52.9958 64.0242 53.0903 64.0584 53.2005 64.0584C53.3108 64.0584 53.4132 64.0242 53.505 63.9585C53.5969 63.8929 53.6494 63.7957 53.6652 63.6696C53.6783 63.554 53.6494 63.4594 53.5759 63.3859C53.5024 63.315 53.4079 63.2782 53.2898 63.2782Z" fill="#00F5A4"/>
<path d="M58.6689 62.3117H58.43H58.2174H57.8394L58.1885 59.22H57.4246L57.0755 62.3117H56.8366H56.624H56.3379L56.5584 60.3626H55.7945L55.5031 62.9342C55.4874 63.0813 55.4559 63.1838 55.406 63.2416C55.3588 63.2994 55.28 63.3256 55.1724 63.3256C55.1277 63.3256 55.0805 63.323 55.0385 63.3177C54.9939 63.3125 54.9177 63.2941 54.8127 63.2678L54.7812 64.0375C54.8469 64.0585 54.9099 64.0743 54.9703 64.0821C55.0306 64.09 55.0936 64.0926 55.1566 64.0926C55.4795 64.0926 55.7263 64.006 55.9021 63.8352C56.0754 63.6645 56.1909 63.4123 56.2434 63.0787H56.5374H56.75H58.1308H58.3434H59.3461L59.6953 59.987H59.9945L60.0812 59.2226H59.018L58.6689 62.3117Z" fill="#00F5A4"/>
<path d="M64.3228 60.4229C64.1626 60.4649 64.0183 60.5306 63.8949 60.6199C63.7348 60.7355 63.6114 60.8799 63.5247 61.0507C63.4381 61.2214 63.383 61.4211 63.3594 61.647L63.2202 62.8868H62.3829C62.2385 62.8868 62.1046 62.871 61.9786 62.8395C61.8526 62.808 61.7056 62.7397 61.5324 62.6346L61.1465 63.3123C61.2751 63.3885 61.3854 63.4463 61.472 63.4883C61.5586 63.5277 61.6531 63.5619 61.7529 63.5855C61.8526 63.6092 61.9629 63.6275 62.081 63.6381C62.1991 63.6486 62.3409 63.6538 62.5036 63.6538H63.8975L64.1285 61.6076C64.1364 61.534 64.16 61.4605 64.1941 61.3922C64.2309 61.3212 64.2729 61.2687 64.3201 61.2319C64.37 61.1951 64.4225 61.1689 64.4829 61.1531C64.5433 61.1374 64.6089 61.1295 64.6824 61.1295H64.916L64.6955 63.0785H65.4594L65.7665 60.3651H64.8373C64.6561 60.3625 64.4829 60.3835 64.3228 60.4229Z" fill="#00F5A4"/>
<path d="M62.6299 61.6706C62.7428 61.6706 62.8478 61.6364 62.9449 61.5681C63.042 61.4998 63.0972 61.3974 63.1129 61.266C63.126 61.1452 63.0945 61.0506 63.0184 60.9745C62.9423 60.9009 62.8425 60.8641 62.7192 60.8641C62.5958 60.8641 62.4882 60.9009 62.3963 60.9745C62.3044 61.048 62.2493 61.1452 62.2362 61.266C62.2204 61.3974 62.2545 61.4998 62.3359 61.5681C62.4199 61.6364 62.517 61.6706 62.6299 61.6706Z" fill="#00F5A4"/>
<path d="M62.2282 62.5427C62.3095 62.611 62.4067 62.6452 62.5195 62.6452C62.6324 62.6452 62.7374 62.611 62.8345 62.5427C62.9317 62.4744 62.9868 62.372 63.0025 62.2407C63.0157 62.1198 62.9842 62.0253 62.908 61.9491C62.8319 61.8755 62.7322 61.8387 62.6088 61.8387C62.4854 61.8387 62.3778 61.8755 62.2859 61.9491C62.1914 62.0226 62.1389 62.1198 62.1258 62.2407C62.1127 62.3746 62.1468 62.4744 62.2282 62.5427Z" fill="#00F5A4"/>
<path d="M68.1359 60.7249C68.0283 60.5962 67.8944 60.5016 67.7369 60.4465C67.5794 60.3887 67.393 60.3624 67.1778 60.3624H66.9048L66.8181 61.1268H67.1541C67.2276 61.1268 67.2933 61.14 67.351 61.1689C67.4088 61.1977 67.4534 61.2345 67.4823 61.2792C67.5138 61.3265 67.5348 61.379 67.5453 61.442C67.5558 61.5051 67.5584 61.5786 67.5479 61.6653L67.4744 62.3115H65.8679L65.7812 63.0759H68.1516L68.3065 61.6942C68.3275 61.4972 68.3275 61.316 68.3065 61.1478C68.2881 60.9797 68.2304 60.8405 68.1359 60.7249Z" fill="#00F5A4"/>
<path d="M80.6094 62.3116H80.3758C80.0608 62.3116 79.8534 62.2538 79.7563 62.1356C79.7668 62.0936 79.7799 62.0384 79.7931 61.9701C79.8062 61.9018 79.8193 61.8309 79.8272 61.7548L80.0214 60.0395H79.2628L79.0607 61.8362C79.0423 61.999 78.9872 62.1251 78.8953 62.2197C78.8034 62.3116 78.6748 62.3589 78.5094 62.3589C78.3493 62.3589 78.2286 62.3116 78.1446 62.2197C78.0606 62.1251 78.0317 61.9754 78.0553 61.7705L78.1892 60.5963H77.4253L77.2888 61.7994C77.2783 61.9045 77.2521 61.9885 77.2127 62.0516C77.1733 62.1173 77.1234 62.1672 77.0657 62.2092C77.0079 62.2486 76.9449 62.2775 76.8767 62.2932C76.8084 62.309 76.7454 62.3169 76.6824 62.3169H76.2729L76.4672 60.599H75.7033L75.509 62.3169H74.7137H74.5063H73.8947L74.5877 60.8984C74.3777 60.683 74.1598 60.5123 73.934 60.3862C73.7057 60.2601 73.4563 60.1971 73.178 60.1971C73.0389 60.1971 72.905 60.2128 72.7738 60.247C72.6425 60.2811 72.5139 60.3284 72.3905 60.3888C72.2645 60.4492 72.1411 60.5202 72.0178 60.6016C71.8944 60.683 71.7605 60.7802 71.6161 60.8932L72.0073 62.3169H71.4639H71.2565H71.036L71.2618 60.3678H70.4743C70.238 60.3678 70.0175 60.3993 69.8101 60.4597C69.6028 60.5202 69.4216 60.6095 69.2615 60.7277C69.1014 60.8433 68.9727 60.9851 68.8704 61.1532C68.768 61.3213 68.705 61.5105 68.6814 61.7232C68.6551 61.9623 68.6735 62.1698 68.7418 62.3432C68.8074 62.5165 68.9098 62.6584 69.0463 62.7661C69.1828 62.8764 69.3481 62.9552 69.5398 63.0051C69.7314 63.055 69.9414 63.0813 70.1698 63.0813H70.175C70.1698 63.1102 70.1514 63.1417 70.1251 63.1837C70.0963 63.2231 70.0621 63.2546 70.0201 63.2757C69.9781 63.2967 69.9256 63.3124 69.86 63.3203C69.797 63.3282 69.7209 63.3308 69.6343 63.3308C69.5293 63.3308 69.4269 63.3229 69.3245 63.3019C69.2221 63.2835 69.0856 63.2468 68.9124 63.1916L68.8809 63.9691L69.104 64.0348C69.1591 64.0479 69.209 64.0584 69.2615 64.0663C69.3114 64.0742 69.3639 64.0821 69.419 64.0873C69.4715 64.0926 69.5319 64.0952 69.5949 64.0952C69.8075 64.0952 69.9913 64.0689 70.1488 64.0164C70.3063 63.9639 70.4401 63.8903 70.5478 63.7958C70.658 63.7012 70.742 63.5882 70.8076 63.4569C70.8706 63.3256 70.9153 63.2021 70.9363 63.0813H71.1725H71.3799H74.4197H74.627H76.5984C76.7822 63.0813 76.9633 63.0445 77.1392 62.971C77.3151 62.8974 77.4516 62.8133 77.5461 62.7214C77.5671 62.7713 77.6117 62.8239 77.6799 62.8843C77.7456 62.9447 77.8191 62.992 77.9004 63.0287C77.9818 63.0655 78.0658 63.0918 78.1551 63.1049C78.2443 63.118 78.3336 63.1259 78.4254 63.1259C78.9084 63.1259 79.2471 62.9998 79.4439 62.7477C79.4413 62.745 79.4597 62.7687 79.5017 62.816C79.5411 62.8659 79.5936 62.9105 79.6592 62.9499C79.7248 62.9893 79.8036 63.0209 79.8981 63.0445C79.9479 63.0576 80.0083 63.0655 80.0792 63.0708V63.0786H81.2946L81.6437 59.9869H81.943L82.0296 59.2225H80.9665L80.6094 62.3116ZM70.2721 62.3116H70.0595C69.9624 62.3116 69.8705 62.2985 69.7891 62.2722C69.7078 62.246 69.6395 62.2092 69.5844 62.1593C69.5293 62.1094 69.4899 62.049 69.4636 61.9754C69.4374 61.9019 69.4295 61.8152 69.44 61.718C69.4505 61.6287 69.4768 61.5472 69.5214 61.4763C69.566 61.4054 69.6238 61.3423 69.692 61.2924C69.7603 61.2425 69.839 61.2031 69.9283 61.1716C70.0149 61.1427 70.1041 61.1269 70.1934 61.1269H70.406L70.2721 62.3116ZM73.1728 62.3116H72.7029L72.4352 61.2058C72.5323 61.1401 72.632 61.0902 72.737 61.0508C72.842 61.0114 72.9575 60.993 73.0783 60.993C73.2043 60.993 73.3145 61.0114 73.4064 61.0455C73.4983 61.0797 73.5902 61.1322 73.682 61.2005L73.1728 62.3116Z" fill="#00F5A4"/>
<path d="M82.25 63.076H83.0139L83.4496 59.2198H82.6858L82.25 63.076Z" fill="#00F5A4"/>
<path d="M86.1612 61.6707C86.274 61.6707 86.379 61.6365 86.4762 61.5682C86.5733 61.4999 86.6284 61.3975 86.6442 61.2662C86.6573 61.1453 86.6258 61.0508 86.5497 60.9746C86.4735 60.901 86.3738 60.8643 86.2504 60.8643C86.127 60.8643 86.0194 60.901 85.9275 60.9746C85.8357 61.0481 85.7805 61.1453 85.7674 61.2662C85.7517 61.3975 85.7858 61.4999 85.8672 61.5682C85.9512 61.6365 86.0483 61.6707 86.1612 61.6707Z" fill="#00F5A4"/>
<path d="M88.3718 60.3625C88.188 60.3625 88.0148 60.3836 87.8547 60.4256C87.6945 60.4676 87.5502 60.5333 87.4268 60.6226C87.2667 60.7382 87.1433 60.8827 87.0567 61.0534C86.97 61.2241 86.9149 61.4238 86.8913 61.6497L86.7522 62.8895H85.9122C85.7678 62.8895 85.6339 62.8738 85.5079 62.8422C85.3819 62.8107 85.2349 62.7424 85.0617 62.6373L84.6758 63.3151C84.8044 63.3912 84.9147 63.449 85.0013 63.491C85.0879 63.5304 85.1824 63.5646 85.2822 63.5882C85.3819 63.6119 85.4922 63.6303 85.6103 63.6408C85.7284 63.6513 85.8702 63.6565 86.0329 63.6565H87.4268L87.6578 61.6103C87.6657 61.5367 87.6893 61.4632 87.7234 61.3949C87.7602 61.324 87.8022 61.2714 87.8494 61.2346C87.8967 61.1979 87.9518 61.1716 88.0122 61.1558C88.0726 61.1401 88.1382 61.1322 88.2143 61.1322H88.4479L88.2274 63.0813H88.9913L89.2984 60.3678H88.3718V60.3625Z" fill="#00F5A4"/>
<path d="M85.7594 62.5427C85.8408 62.611 85.9379 62.6452 86.0508 62.6452C86.1637 62.6452 86.2687 62.611 86.3658 62.5427C86.4629 62.4744 86.518 62.372 86.5338 62.2407C86.5469 62.1198 86.5154 62.0253 86.4393 61.9491C86.3632 61.8755 86.2634 61.8387 86.14 61.8387C86.0167 61.8387 85.909 61.8755 85.8172 61.9491C85.7227 62.0226 85.6702 62.1198 85.657 62.2407C85.6439 62.3746 85.678 62.4744 85.7594 62.5427Z" fill="#00F5A4"/>
<path d="M89.9543 62.9342C89.9386 63.0813 89.9071 63.1837 89.8572 63.2415C89.8099 63.2993 89.7312 63.3256 89.6236 63.3256C89.5789 63.3256 89.5317 63.3229 89.4897 63.3177C89.4451 63.3124 89.3689 63.294 89.2639 63.2678L89.2324 64.0374C89.298 64.0584 89.361 64.0742 89.4214 64.0821C89.4818 64.09 89.5448 64.0926 89.6078 64.0926C89.7784 64.0926 89.9307 64.0689 90.0619 64.019C90.1932 63.9691 90.3061 63.8929 90.3979 63.7879C90.4898 63.6828 90.5607 63.5541 90.6132 63.3965C90.6657 63.2389 90.7051 63.055 90.7287 62.8422L91.0096 60.3625H90.2457L89.9543 62.9342Z" fill="#00F5A4"/>
<path d="M92.3941 60.4546C92.1867 60.515 92.0056 60.6043 91.8455 60.7225C91.6854 60.8381 91.5567 60.98 91.4544 61.1481C91.352 61.3162 91.289 61.5053 91.2654 61.7181C91.2391 61.9571 91.2575 62.1646 91.3257 62.338C91.3914 62.5114 91.4937 62.6532 91.6302 62.7609C91.7667 62.8712 91.9321 62.9501 92.1237 63C92.3154 63.0499 92.5254 63.0761 92.7537 63.0761H92.759C92.7537 63.105 92.7354 63.1366 92.7091 63.1786C92.6802 63.218 92.6461 63.2495 92.6041 63.2705C92.5621 63.2915 92.5096 63.3073 92.444 63.3152C92.381 63.3231 92.3049 63.3257 92.2182 63.3257C92.1132 63.3257 92.0109 63.3178 91.9085 63.2968C91.8061 63.2784 91.6696 63.2416 91.4964 63.1865L91.4649 63.964L91.688 64.0297C91.7431 64.0428 91.793 64.0533 91.8455 64.0612C91.8954 64.0691 91.9479 64.0769 92.003 64.0822C92.0555 64.0874 92.1159 64.0901 92.1789 64.0901C92.4125 64.0901 92.612 64.0585 92.78 63.9981C92.948 63.9377 93.0871 63.851 93.1947 63.7381C93.305 63.6251 93.3864 63.4938 93.4441 63.3414C93.5019 63.1891 93.5386 63.0236 93.5596 62.8424L93.8431 60.3627H93.0556C92.822 60.3627 92.5989 60.3916 92.3941 60.4546ZM92.8614 62.3117H92.6487C92.5516 62.3117 92.4597 62.2986 92.3784 62.2723C92.297 62.2461 92.2287 62.2093 92.1736 62.1594C92.1185 62.1095 92.0791 62.0491 92.0529 61.9755C92.0266 61.902 92.0187 61.8153 92.0292 61.7181C92.0397 61.6288 92.066 61.5474 92.1106 61.4764C92.1552 61.4055 92.213 61.3425 92.2812 61.2926C92.3495 61.2426 92.4282 61.2032 92.5175 61.1717C92.6041 61.1428 92.6934 61.1271 92.7826 61.1271H92.9952L92.8614 62.3117Z" fill="#00F5A4"/>
<path d="M97.058 62.3116H96.8139H96.6065H96.3151L96.386 61.6943C96.407 61.4973 96.407 61.3161 96.386 61.148C96.3624 60.9799 96.3046 60.8406 96.2101 60.7277C96.1025 60.599 95.9686 60.5044 95.8111 60.4492C95.6536 60.3915 95.4672 60.3652 95.252 60.3652H94.979L94.8923 61.1296H95.2283C95.3018 61.1296 95.3675 61.1427 95.4252 61.1716C95.483 61.2005 95.5276 61.2373 95.5565 61.2819C95.588 61.3292 95.609 61.3817 95.6195 61.4448C95.63 61.5078 95.6326 61.5814 95.6221 61.6681L95.5486 62.3143H93.9421L93.8555 63.0786H96.5172H96.7246H97.7326L98.0817 59.9869H98.381L98.4676 59.2225H97.4045L97.058 62.3116Z" fill="#00F5A4"/>
<path d="M98.6973 63.076H99.4611L99.8969 59.2198H99.133L98.6973 63.076Z" fill="#00F5A4"/>
<path d="M29.6551 49.2359C31.7157 49.2359 33.5848 47.5574 33.8079 45.5059L33.9654 44.0585C34.1885 42.007 32.687 40.3337 30.6264 40.3337H22.0793C20.0502 40.3337 18.2704 42.0333 18.0473 44.0585L17.3254 50.6544C17.0997 52.7138 18.5854 54.3765 20.646 54.3765H32.4796C32.7054 54.3765 32.8944 54.2058 32.918 53.9825L33.2304 51.1246C33.2593 50.8671 33.0597 50.6465 32.8025 50.6465H24.7175C22.8931 50.6465 21.2341 51.9599 20.7222 53.6909L21.2104 49.2359H29.6551ZM21.7774 44.0506L30.2379 44.0559L30.0804 45.5032H21.6173L21.7774 44.0506Z" fill="#00F5A4"/>
<path d="M69.8672 50.1235H72.5447H75.4742L75.8575 46.6404H70.2478L69.8672 50.1235Z" fill="#00F5A4"/>
<path d="M59.2832 50.1235H64.8929L65.2735 46.6404H59.6638L59.2832 50.1235Z" fill="#00F5A4"/>
<path d="M49.1485 46.6404L49.0645 47.4048H54.6741L54.7555 46.6404H49.1485Z" fill="#00F5A4"/>
<path d="M91.416 46.6404L91.332 47.4048H96.9417L97.0231 46.6404H91.416Z" fill="#00F5A4"/>
<path d="M100.586 44.095C100.475 43.9321 100.355 43.7798 100.234 43.6511C99.8427 43.2308 99.3466 42.8893 98.8137 42.6739C98.1706 42.4139 97.5799 42.3823 97.1363 42.3823H42.4572L42.6357 40.7564C42.662 40.5226 42.4782 40.3203 42.2446 40.3203H36.3777C36.1782 40.3203 36.0075 40.47 35.9865 40.6697L35.0599 49.9002C34.9339 51.056 35.2935 52.196 36.0338 53.0392C36.7347 53.8482 37.7584 54.3893 38.8951 54.3893H65.1321L64.8801 56.7035C64.8538 56.9373 65.0376 57.1396 65.2712 57.1396C65.2712 57.1396 74.4404 57.1632 74.9103 57.1396C76.8108 57.0424 78.3832 55.9838 79.0788 54.3893H100.103C100.302 54.3893 100.473 54.2291 100.494 54.0321L101.205 47.8329C101.205 47.8329 101.352 46.8768 101.289 46.1255C101.229 45.39 100.998 44.6834 100.586 44.095ZM46.1086 52.0988H39.0631C39.0631 52.0988 39.0631 52.0988 39.0631 52.0962C37.9894 52.0804 37.2177 51.2057 37.3358 50.1261L38.1574 42.6082H40.1262L39.1234 51.781C39.3781 50.8432 40.2653 50.1235 41.2471 50.1235H46.3239L46.1086 52.0988ZM56.7268 46.6403L56.6428 47.4047C56.5247 48.4922 55.5455 49.3748 54.4588 49.3748H48.8517L48.5945 51.7284C48.8649 50.8143 49.7416 50.1208 50.705 50.1208H56.3698L56.1545 52.0909H48.5577V52.0935C47.471 52.0935 46.6861 51.2109 46.8042 50.1235L47.1849 46.6403C47.303 45.5712 48.2506 44.7018 49.3137 44.6729C50.1091 44.6729 54.9759 44.6729 54.9759 44.6729C56.06 44.6729 56.8449 45.5502 56.7268 46.6403ZM64.6753 52.0935L64.8565 50.436C64.6018 51.3738 63.7146 52.0935 62.7328 52.0935H57.0969L57.6928 46.6377C57.8083 45.5818 58.6536 44.6729 59.7797 44.6729H67.4552L66.6415 52.0962H64.6753V52.0935ZM77.8267 46.6403L77.1442 52.8763C77.026 53.9454 76.081 54.8149 75.0153 54.8438V54.8464H67.3817L67.597 52.8763H73.2591C74.191 52.8763 74.8972 53.5225 75.0074 54.392L75.2594 52.0962H69.6524C68.5709 52.0962 67.7886 51.2241 67.8989 50.1418L68.2821 46.643C68.4002 45.5555 69.3794 44.6755 70.4661 44.6755H76.1283C77.1862 44.7018 77.9422 45.5686 77.8267 46.6403ZM87.8149 52.0699H85.8461L86.043 50.4623C85.8015 51.3029 84.9825 52.0699 83.8773 52.0699H80.2102C79.1366 52.0541 78.3648 51.1794 78.4829 50.0998L79.0788 44.6703H81.0476L80.4517 50.0998H86.0587L86.6546 44.6703H88.6234L87.8149 52.0699ZM98.9948 46.6403L98.9108 47.4047C98.7927 48.4922 97.8136 49.3748 96.7268 49.3748H91.1198L90.8625 51.7284C91.1329 50.8143 92.0096 50.1208 92.973 50.1208H98.6378L98.4226 52.0909L90.8258 52.0935C89.739 52.0935 88.9541 51.2109 89.0722 50.1235L89.4529 46.6403C89.571 45.5712 90.516 44.6729 91.5818 44.6729C91.7918 44.6729 97.2439 44.6729 97.2439 44.6729C98.3281 44.6729 99.1129 45.5502 98.9948 46.6403Z" fill="#00F5A4"/>
<path d="M35.8423 21.0896H15.9761V21.087H15.9683L27.7047 0.732059C27.8832 0.422099 27.4763 0.112139 27.2243 0.36431L0.0895323 27.5068C-0.102094 27.6986 0.0344068 28.0269 0.304784 28.0269L20.1762 28.0296L8.44233 48.3818C8.26383 48.6918 8.67071 49.0018 8.92271 48.7496L36.0575 21.6097C36.2491 21.418 36.1126 21.0896 35.8423 21.0896Z" fill="#00F5A4"/>
<path d="M56.4461 35.4974H67.8465C67.941 35.4974 68.0303 35.4528 68.088 35.3792L69.2483 33.8662C69.3743 33.7007 69.6263 33.7086 69.7418 33.882L73.065 38.8019C73.2252 39.0383 73.5927 38.9464 73.6215 38.6627L75.3882 21.4284C75.4066 21.2498 75.2648 21.0922 75.0863 21.0922H69.7759C69.621 21.0922 69.4898 21.2104 69.474 21.3653L68.5789 29.9943C68.5631 30.1493 68.4345 30.2649 68.2796 30.2675L62.9351 30.3384C62.7513 30.3411 62.6096 30.1834 62.628 30.0022L63.5415 21.431C63.5599 21.2498 63.4207 21.0948 63.2396 21.0948H57.8636C57.7061 21.0948 57.5774 21.213 57.5617 21.368L56.1442 35.1665C56.1258 35.3424 56.2676 35.4974 56.4461 35.4974Z" fill="#00F5A4"/>
<path d="M36.8606 35.4974H48.261C48.3555 35.4974 48.4448 35.4528 48.5025 35.3792L49.6628 33.8662C49.7888 33.7007 50.0408 33.7086 50.1563 33.882L53.4796 38.8019C53.6397 39.0383 54.0072 38.9464 54.0361 38.6627L55.6347 23.0596C55.6662 22.7602 55.2882 22.6026 55.0966 22.8337L49.0538 30.1546C48.996 30.2228 48.912 30.2649 48.8228 30.2649L43.347 30.3358C43.1632 30.3384 43.0215 30.1808 43.0399 29.9996L43.5964 24.7907C43.6095 24.6646 43.7014 24.5569 43.8248 24.528L55.2488 21.6937C55.5979 21.607 55.535 21.0922 55.1753 21.0922H38.2781C38.1232 21.0922 37.992 21.2104 37.9762 21.3653L36.5587 35.1638C36.5377 35.3424 36.6795 35.4974 36.8606 35.4974Z" fill="#00F5A4"/>
<path d="M76.0242 35.4974H76.04H87.4273H87.443C87.5375 35.4974 87.6268 35.4527 87.6845 35.3792L88.8448 33.8661C88.9052 33.7873 88.997 33.7479 89.0863 33.7479C89.1782 33.7532 89.2674 33.7952 89.3225 33.8793L92.6458 38.7992C92.7088 38.8912 92.8007 38.9306 92.8926 38.9332C93.0422 38.9411 93.1971 38.8386 93.2154 38.66L97.1215 0.621605C97.1582 0.251229 96.6306 0.148784 96.5256 0.506026L90.7296 21.0921H77.4575H77.4417C77.2842 21.0921 77.1556 21.2103 77.1398 21.3653L75.7223 35.1638C75.704 35.3424 75.8431 35.4974 76.0242 35.4974ZM82.7863 24.6987C82.823 24.6146 82.8991 24.5489 82.991 24.5279L90.2702 22.7207L88.2069 30.0468C88.1702 30.1755 88.052 30.2648 87.9208 30.2674L82.5264 30.3384C82.3453 30.341 82.2009 30.1834 82.2193 30.0021L82.7863 24.6987Z" fill="#00F5A4"/>
<path d="M104.457 14.1023H97.9232C97.4874 14.1023 97.2302 14.5935 97.4769 14.9507L100.614 19.4977C100.824 19.8024 101.273 19.8103 101.493 19.5135L104.89 14.9665C105.158 14.6093 104.903 14.1023 104.457 14.1023Z" fill="#00F5A4"/>
<path d="M103.979 21.0895H97.2986C97.1254 21.0895 97.002 21.255 97.0492 21.4231L101.674 38.7099C101.761 39.0304 102.226 38.9962 102.265 38.6653L104.237 21.3758C104.252 21.2234 104.134 21.0895 103.979 21.0895Z" fill="#00F5A4"/>
</svg>