<?xml version="1.0" encoding="UTF-8" standalone="no"?>
<!DOCTYPE svg PUBLIC "-//W3C//DTD SVG 1.1//EN" "http://www.w3.org/Graphics/SVG/1.1/DTD/svg11.dtd">
<!-- Created with Vectornator (http://vectornator.io/) -->
<svg height="100%" stroke-miterlimit="10" style="fill-rule:nonzero;clip-rule:evenodd;stroke-linecap:round;stroke-linejoin:round;" version="1.1" viewBox="0 0 1024 1024" width="100%" xml:space="preserve" xmlns="http://www.w3.org/2000/svg" xmlns:vectornator="http://vectornator.io" xmlns:xlink="http://www.w3.org/1999/xlink">
<defs/>
<g id="Layer-1" vectornator:layerName="Layer 1">
<g opacity="1" vectornator:layerName="Group 2">
<g opacity="1" vectornator:layerName="Group 1">
<g opacity="1" vectornator:layerName="g">
<path d="M824.743 467.983C824.743 467.983 825.682 467.983 826.058 467.983C825.682 467.795 825.494 467.419 825.119 467.231C825.119 467.607 824.931 467.795 824.743 468.17" fill="#000000" fill-rule="nonzero" opacity="1" stroke="none" vectornator:layerName="path"/>
<g opacity="1" vectornator:layerName="g">
<path d="M598.739 147.481C587.842 130.01 571.686 119.865 550.833 121.18C540.688 121.743 531.294 124.561 523.028 129.258C523.78 125.313 525.095 121.368 527.161 117.798C534.3 104.648 545.009 101.078 559.099 104.272C563.795 105.399 569.807 104.272 574.128 102.205C575.631 101.642 581.831 98.4479 577.134 97.3207C559.099 93.1877 538.621 94.8785 522.277 104.46C518.707 106.526 515.701 108.781 513.071 111.599C510.253 107.841 506.872 104.648 502.363 102.017C487.897 93.1877 469.674 94.3149 453.705 97.8843C452.202 98.2601 442.621 100.327 443.56 103.145C444.5 106.15 453.142 104.272 455.02 103.896C475.31 99.3873 490.152 109.908 497.29 125.125C489.776 121.931 481.322 120.616 472.116 121.556C467.044 122.119 462.159 123.059 457.65 124.749L457.65 124.749C455.96 126.628 454.832 127.943 453.33 129.446C452.202 129.07 450.887 128.507 449.572 127.943C439.24 133.015 430.41 140.718 423.647 151.239C421.768 154.432 431.161 153.493 431.913 153.305C435.482 152.929 442.621 151.802 444.688 148.421C451.075 138.464 460.656 126.252 473.807 129.822C482.637 132.264 489.964 138.088 495.788 144.851C484.515 145.978 473.431 149.172 464.038 155.56C455.208 161.571 449.948 169.837 447.506 179.043C448.633 179.982 449.196 181.485 449.196 183.176C449.196 185.618 447.881 186.933 446.191 187.309C445.627 193.884 446.191 200.648 447.506 207.223C448.633 211.544 470.05 207.035 469.11 202.714C463.85 179.794 471.928 148.796 500.86 152.742L500.86 159.505C500.86 159.505 500.86 159.505 500.672 159.505C499.545 159.88 498.23 160.256 497.103 161.008C495.975 161.759 495.224 162.886 494.66 164.201C492.782 167.959 491.842 172.28 492.218 176.601C492.406 180.922 493.909 185.243 496.539 188.624C497.666 190.127 499.357 191.63 501.048 192.757L501.048 223.192C501.048 226.385 521.337 225.446 521.337 219.998L521.337 192.194C522.465 191.63 523.404 191.066 524.343 190.315C528.664 186.745 531.294 180.734 530.543 175.098C530.355 173.219 529.604 171.716 528.852 170.025C528.852 171.153 528.101 172.468 526.786 173.595C523.78 172.092 520.962 170.401 521.901 166.456C522.089 165.329 523.028 163.638 523.968 163.45C523.968 163.45 524.343 163.45 524.531 163.45C523.592 162.511 522.84 161.759 521.713 160.82C521.713 160.82 521.337 160.444 521.15 160.256L521.15 153.305C521.15 153.305 522.277 152.366 522.653 151.99C547.639 155.184 559.099 181.109 553.275 206.659C552.899 208.35 573.377 208.162 574.88 202.151C576.758 193.884 577.134 185.43 575.631 177.54C575.067 177.728 574.316 178.104 573.752 178.479C573.752 177.916 573.377 177.352 573.189 176.601C573.94 176.601 574.692 176.413 575.443 176.225C573.565 168.147 569.619 160.82 563.044 154.808C552.148 145.227 537.494 143.16 523.592 144.1C530.919 134.143 540.312 125.313 553.651 130.385C563.983 134.331 571.686 142.597 577.51 151.802C580.703 156.875 600.43 149.172 599.114 147.293M498.23 110.284C498.23 110.284 497.29 109.532 496.727 109.156C497.29 108.405 498.042 107.653 498.606 106.714C498.981 107.09 499.545 107.278 499.921 107.653C499.357 108.405 498.793 109.344 498.042 110.096M517.768 157.062C516.453 157.062 514.95 156.875 513.635 156.687C513.635 156.123 513.635 155.56 513.635 154.996C514.762 154.244 515.701 153.493 517.768 152.178" fill="#000000" fill-rule="nonzero" opacity="1" stroke="none" vectornator:layerName="path"/>
<path d="M577.134 870.018C571.31 879.224 563.608 887.49 553.275 891.435C540.124 896.507 530.731 887.49 523.216 877.721C537.118 878.66 551.772 876.594 562.668 867.012C576.383 854.989 578.449 836.766 574.692 819.67C573.189 813.47 552.711 813.47 553.087 815.161C558.911 840.711 547.263 866.449 522.465 869.83C522.089 869.455 521.525 868.891 520.962 868.515L520.962 861.564C520.962 861.564 521.337 861.188 521.525 861.001C525.846 857.431 529.416 852.547 530.167 847.098C530.919 841.462 528.289 835.639 523.968 831.881C523.028 831.13 522.089 830.566 520.962 830.003L520.962 802.198C520.962 796.75 500.672 795.623 500.672 799.004L500.672 829.439C498.981 830.566 497.478 831.881 496.163 833.572C493.533 836.954 492.218 841.275 491.842 845.595C491.654 849.916 492.406 854.237 494.285 857.995C494.848 859.122 495.788 860.437 496.727 861.188C497.854 861.94 498.981 862.316 500.296 862.691C500.296 862.691 500.296 862.691 500.484 862.691L500.484 869.455C471.553 873.4 463.662 842.214 468.735 819.482C469.674 815.161 448.257 810.464 447.13 814.973C442.809 834.323 446.566 854.801 463.85 866.637C473.243 873.024 484.328 876.218 495.6 877.345C489.776 884.296 482.449 889.932 473.619 892.374C460.468 895.944 450.699 883.545 444.5 873.776C442.433 870.394 435.294 869.267 431.725 868.891C430.785 868.891 421.58 867.952 423.459 870.958C434.543 888.429 451.451 898.574 471.928 900.641C481.134 901.768 489.588 900.265 497.103 897.071C489.964 912.288 474.934 922.809 454.832 918.3C453.142 917.924 444.5 916.046 443.373 919.052C442.433 921.87 452.014 923.936 453.517 924.312C469.486 927.881 487.521 929.009 502.175 920.179C506.496 917.549 510.065 914.355 512.883 910.598C515.514 913.228 518.519 915.67 522.089 917.736C538.433 927.318 558.723 928.821 576.946 924.875C581.643 923.748 575.443 920.554 573.94 919.991C569.619 918.112 563.608 916.797 558.911 917.924C544.821 921.118 533.925 917.361 526.973 904.398C524.907 900.828 523.78 896.883 522.84 892.938C531.107 897.635 540.688 900.265 550.645 901.016C571.498 902.519 587.655 892.187 598.551 874.715C599.866 872.648 580.328 865.134 576.946 870.206M520.022 875.091C517.636 873.212 517.636 871.083 520.022 868.703" fill="#000000" fill-rule="nonzero" opacity="1" stroke="none" vectornator:layerName="path"/>
<path d="M924.5 557.595C925.627 557.219 926.567 556.656 927.318 555.904C926.943 544.069 924.125 532.233 918.113 522.088C916.046 518.519 913.604 515.513 910.974 513.071C914.543 510.253 917.925 506.871 920.555 502.362C929.385 487.896 928.07 469.673 924.688 453.705C924.312 452.202 922.246 442.621 919.428 443.56C916.422 444.687 918.301 453.329 918.676 455.02C923.185 475.309 912.665 490.151 897.447 497.29C900.641 489.775 901.956 481.321 901.017 472.116C899.514 459.153 895.005 447.505 887.49 438.112C883.921 435.669 880.915 432.476 878.473 429.094C876.218 427.215 873.776 425.525 871.334 423.834C868.14 421.955 869.079 431.161 869.267 432.1C869.643 435.669 870.77 442.621 874.152 444.875C884.109 451.075 896.508 460.844 892.751 473.994C890.308 482.824 884.485 490.151 877.721 495.975C876.594 484.703 873.4 473.619 867.013 464.225C858.183 451.262 844.657 446.002 830.379 446.002C827.185 446.754 823.991 447.129 820.234 447.129C819.67 447.129 819.107 447.129 818.543 447.129C817.416 447.129 816.477 447.317 815.349 447.693C811.592 448.632 814.598 465.165 818.355 468.546C818.355 468.17 818.731 467.795 818.919 467.607C823.24 466.292 823.616 462.347 825.119 459.153C826.622 459.904 825.682 464.037 829.44 461.595C830.191 461.031 832.633 463.098 834.324 464.037L834.324 464.037L834.512 464.037C834.512 464.037 834.512 464.037 834.324 464.037C833.573 465.165 832.821 466.48 832.258 467.795C852.547 467.419 873.4 477 870.019 501.047L863.256 501.047C863.256 501.047 863.256 500.859 863.256 500.671C862.88 499.544 862.504 498.229 861.753 497.29C861.001 496.163 859.874 495.411 858.559 494.848C854.802 492.781 850.481 492.03 846.16 492.405C841.839 492.593 837.518 493.908 834.136 496.538C832.633 497.853 831.13 499.356 830.003 501.047L799.381 501.047C796.187 501.047 797.126 521.337 802.575 521.337L830.379 521.337C830.942 522.464 831.506 523.403 832.258 524.343C835.827 528.852 841.651 531.482 847.475 530.73C852.923 529.979 857.807 526.221 861.377 522.088C861.565 522.088 861.753 521.713 861.941 521.525L868.892 521.525C868.892 521.525 869.643 522.84 870.207 523.028C867.013 548.014 840.899 559.474 815.537 553.838C813.847 553.462 814.034 573.94 820.046 575.443C822.113 576.006 824.367 576.382 826.434 576.57C826.997 576.57 827.561 576.57 828.124 576.57C830.567 576.57 832.633 576.758 834.888 577.133C847.099 577.133 858.747 573.376 867.389 563.607C876.97 552.711 879.036 538.057 877.909 523.967C887.866 531.294 896.696 540.687 891.624 554.026C887.678 564.358 879.412 572.061 870.395 577.885C865.322 581.079 873.025 600.617 874.903 599.49C877.158 597.987 879.412 596.484 881.291 594.793C883.545 591.787 886.175 589.157 889.369 586.902C897.635 577.321 901.956 565.486 901.017 551.396C900.453 541.251 897.635 531.857 892.939 523.591C896.884 524.343 900.641 525.658 904.399 527.724C917.549 534.863 921.119 545.572 917.925 559.662C916.986 564.358 917.925 570.37 919.991 574.691C920.743 576.194 923.937 582.394 924.876 577.697C925.252 576.194 925.44 574.691 925.627 573.376C925.627 573.376 925.252 573.564 925.064 573.752C924.312 568.679 923.749 565.298 923.373 561.728C923.373 560.601 923.749 558.722 924.312 558.535M911.913 495.599C913.228 493.533 914.731 491.466 917.173 495.223C915.295 495.223 913.604 495.411 911.913 495.599C911.913 495.599 911.913 495.599 911.913 495.787L911.725 495.787L912.101 495.599" fill="#000000" fill-rule="nonzero" opacity="1" stroke="none" vectornator:layerName="path"/>
<path d="M223.38 500.671L192.758 500.671C191.631 498.981 190.316 497.478 188.625 496.163C185.243 493.533 180.922 492.217 176.601 492.03C172.28 491.654 167.959 492.405 164.202 494.472C163.075 495.035 161.76 495.975 161.008 496.914C160.257 498.041 159.881 499.169 159.317 500.296C159.317 500.296 159.317 500.484 159.317 500.671L152.554 500.671C152.554 500.671 152.554 500.108 152.554 499.732C151.427 499.356 149.924 498.793 149.924 498.793C150.3 497.102 150.863 495.411 151.427 493.72C151.803 493.72 151.991 493.72 152.366 493.908C153.681 470.425 181.674 464.037 202.527 468.734C206.848 469.673 211.545 448.257 207.036 447.129C187.685 442.808 167.208 446.566 155.56 463.849C149.173 473.243 145.979 484.327 144.852 495.599C138.089 489.775 132.265 482.448 129.822 473.619C126.253 460.468 138.652 450.699 148.421 444.499C151.803 442.245 152.93 435.294 153.306 431.724C153.306 430.785 154.245 421.392 151.239 423.458C133.768 434.542 123.623 451.262 121.368 471.928C120.429 481.133 121.744 489.587 124.938 497.102C109.721 489.963 99.2 474.934 103.709 454.832C104.085 453.141 105.963 444.499 102.957 443.372C100.139 442.433 98.0728 452.014 97.6971 453.517C94.1276 469.486 93.0004 487.521 101.83 502.174C104.46 506.495 107.654 510.065 111.411 512.883C108.781 515.513 106.339 518.519 104.272 521.9C101.079 527.349 98.8243 533.36 97.3213 539.56C97.8849 539.56 98.6364 539.56 99.0121 539.936C99.5757 540.311 99.0121 542.754 99.0121 545.384C97.8849 544.632 97.1335 544.069 96.382 543.505C94.3155 554.401 94.6912 565.861 97.1335 576.57C98.2607 581.266 101.454 575.067 102.018 573.564C103.897 569.243 105.024 563.231 104.085 558.535C100.891 544.444 104.648 533.736 117.611 526.597C121.368 524.531 125.126 523.216 129.071 522.464C126.629 526.785 124.75 531.482 123.435 536.366C124.562 536.742 124.938 537.681 125.126 539.184C124.186 539.748 123.247 539.748 122.683 539.56C121.932 542.942 121.18 546.511 120.993 550.268C119.49 571.122 129.822 587.278 147.294 598.174C149.361 599.49 156.875 579.951 151.803 576.57C147.294 573.752 143.161 570.37 139.404 566.613C139.216 567.176 139.028 567.74 138.652 568.304C138.089 567.74 137.337 567.364 137.149 566.801C137.149 565.486 137.149 564.922 137.713 564.546C134.707 560.977 132.077 557.032 130.386 552.711C125.314 539.372 134.143 529.979 144.1 522.652C143.537 531.294 144.1 540.124 146.73 548.202C146.918 547.826 147.67 547.075 147.858 547.263C148.421 547.45 149.173 548.202 149.548 548.765C149.548 548.765 148.985 549.705 147.858 551.02C149.361 555.153 151.615 558.91 154.621 562.292C166.644 576.006 185.055 578.073 201.963 574.128C208.163 572.812 208.351 552.147 206.472 552.523C181.11 558.347 155.184 546.699 151.803 521.713C152.366 521.337 152.742 520.773 153.118 520.21L160.069 520.21C160.069 520.21 160.445 520.585 160.633 520.773C164.202 525.094 169.087 528.664 174.535 529.415C180.171 530.167 185.995 527.536 189.752 523.028C190.503 522.088 191.067 521.149 191.631 520.022L219.435 520.022C224.883 520.022 226.01 499.732 222.629 499.732M120.429 516.64C122.496 515.325 124.186 514.386 126.253 513.259C127.192 514.386 128.132 515.513 129.447 517.204C125.877 517.016 123.435 516.828 120.241 516.64M206.284 555.341C206.848 556.468 207.411 557.032 207.599 557.783C207.599 557.783 206.66 558.722 206.284 558.722C205.721 558.722 205.157 557.971 204.969 557.407C204.969 556.844 205.533 556.28 206.284 555.529" fill="#000000" fill-rule="nonzero" opacity="1" stroke="none" vectornator:layerName="path"/>
</g>
<g opacity="1" vectornator:layerName="g">
<path d="M315.059 237.845C315.059 237.845 314.496 237.282 314.308 237.094C313.181 236.155 312.241 235.215 311.302 234.088C311.302 234.088 311.114 234.088 310.926 234.088C309.048 233.149 307.357 231.458 305.854 230.331C303.412 228.452 301.345 227.137 299.654 224.883C298.151 223.38 297.024 221.877 295.709 220.374C288.382 214.55 281.243 210.229 274.48 208.162C264.899 205.344 255.693 205.344 245.549 205.344L244.421 205.344C240.476 205.344 237.47 205.344 234.464 204.969C231.271 204.969 228.265 204.593 224.32 204.593C223.568 204.593 222.817 204.593 222.253 204.593C221.502 204.593 220.75 204.593 220.186 204.593C218.684 204.593 217.556 204.593 216.617 204.969C213.047 205.908 210.981 207.974 208.727 210.417C207.787 211.356 206.472 212.859 205.533 213.986C207.411 214.926 208.914 216.804 210.042 219.434C210.042 219.434 210.229 219.246 210.417 219.059C210.793 219.434 211.169 219.998 211.357 220.562C211.357 220.749 210.981 221.313 210.793 221.313C211.357 223.38 211.92 225.446 212.296 228.264C209.29 229.579 206.66 230.331 204.406 230.706L204.406 244.421C204.406 254.753 205.345 265.838 210.042 276.358C213.987 285.188 219.999 292.139 227.701 299.841L227.889 299.841C227.889 299.841 227.889 300.217 228.077 300.405C228.828 301.157 232.21 304.538 236.531 308.859C239.725 311.114 242.355 313.744 244.421 316.562C251.748 323.701 259.075 331.027 260.202 332.155C264.147 336.1 276.547 319.943 274.292 317.689C271.474 314.871 261.329 303.223 258.699 300.593C249.118 291.2 228.453 269.219 225.071 259.074C222.253 250.432 221.877 241.603 221.877 234.088L221.877 225.07C221.877 221.689 221.877 219.059 221.689 216.616L221.877 216.616L231.834 216.241C242.355 216.241 253.815 216.804 264.711 221.689C274.104 225.822 281.619 232.585 288.006 238.973L301.533 250.62C305.478 254.566 318.065 240.1 315.811 238.033M302.284 239.724C302.284 239.724 302.284 238.597 302.097 238.221L312.429 238.221C312.429 238.221 312.429 239.348 312.429 239.724" fill="#000000" fill-rule="nonzero" opacity="1" stroke="none" vectornator:layerName="path"/>
<path d="M203.842 802.762C203.842 804.265 203.842 805.392 204.218 806.331C205.157 809.901 207.224 811.967 209.666 814.222C210.793 815.349 212.672 817.04 213.987 817.979C214.175 818.167 214.55 818.355 214.55 818.355L215.114 818.73L243.67 818.73C254.003 818.73 265.087 817.791 275.607 813.094C284.437 809.149 291.388 803.138 299.091 795.435L299.279 795.435C299.279 795.435 299.279 795.059 299.466 794.871C301.909 792.429 328.774 765.188 331.216 762.746C335.161 758.801 319.005 746.402 316.75 748.656C313.932 751.474 302.284 761.619 299.654 764.249C290.261 773.83 268.28 794.496 258.136 797.877C249.494 800.695 240.664 801.071 233.149 801.071L224.132 801.071C220.75 801.071 218.12 801.071 215.678 801.259L215.49 801.259L215.49 796.186C215.49 796.186 215.114 796.186 214.926 796.186L214.926 795.059L215.49 795.059L215.49 791.302C215.49 780.781 216.053 769.321 220.938 758.425C225.071 749.032 231.834 741.517 238.222 735.13L249.869 721.603C253.815 717.658 239.349 705.071 237.282 707.325C233.901 710.707 235.592 709.016 232.21 712.398C219.999 725.361 210.605 737.008 207.224 748.28C204.406 757.862 204.406 767.067 204.406 777.212L204.406 778.339C204.406 782.284 204.406 785.29 204.03 788.296C204.03 791.49 203.654 794.496 203.654 798.441C203.654 799.192 203.654 799.944 203.654 800.507C203.654 801.259 203.654 802.01 203.654 802.574M281.619 798.441C284.625 796.562 286.316 795.247 288.194 794.684C290.073 794.12 292.14 797.314 291.764 799.568C291.576 802.01 289.885 803.701 287.631 802.95C285.752 802.386 284.249 800.695 281.431 798.629" fill="#000000" fill-rule="nonzero" opacity="1" stroke="none" vectornator:layerName="path"/>
<path d="M818.168 213.986C817.228 210.417 815.162 208.35 812.719 206.096C811.592 204.969 809.713 203.278 808.398 202.338C808.211 202.151 807.835 201.963 807.835 201.963L807.271 201.587L778.715 201.587C768.383 201.587 757.299 202.526 746.778 207.223C737.948 211.168 730.997 217.18 723.295 224.695L723.295 225.07C723.295 225.07 722.919 225.07 722.731 225.258C720.289 227.701 693.424 254.941 690.981 257.384C687.036 261.329 703.193 273.728 705.447 271.474C708.265 268.656 719.913 258.511 722.543 255.881C727.428 250.996 735.694 243.106 743.772 236.155C743.021 235.215 742.269 234.276 741.518 233.149C742.833 231.646 743.772 230.519 745.087 229.016C746.214 230.143 747.154 231.082 748.281 232.209C754.293 227.325 760.117 223.38 763.874 222.065C772.516 219.246 781.346 218.871 788.86 218.871L797.878 218.871C801.259 218.871 803.89 218.871 806.332 218.683L806.52 218.683L806.52 228.828C806.52 239.348 805.956 250.808 801.072 261.704C796.939 271.098 790.175 278.613 783.788 285L772.14 298.526C768.195 302.472 782.661 315.059 784.727 312.804C788.109 309.423 786.418 311.114 789.8 307.732C802.011 294.769 811.404 283.121 814.786 271.849C817.604 262.268 817.604 252.875 817.604 242.918L817.604 241.791C817.604 237.845 817.604 234.839 817.98 231.834C817.98 228.64 818.355 225.822 818.355 221.877C818.355 221.125 818.355 220.374 818.355 219.81C818.355 219.059 818.355 218.307 818.355 217.744C818.355 216.241 818.355 215.113 817.98 214.174M716.531 255.881C716.531 255.881 715.968 255.317 715.592 254.941C716.156 254.378 716.344 253.438 716.907 253.063C717.471 252.687 718.222 252.499 718.786 252.123C719.162 252.499 719.349 253.063 719.725 253.438M733.439 229.016C730.809 228.452 728.367 227.701 724.798 226.949C728.931 223.567 731.185 226.949 733.815 227.325M753.729 222.816C751.475 221.125 749.784 219.998 747.717 218.495C750.347 217.744 752.038 217.368 754.856 216.616" fill="#000000" fill-rule="nonzero" opacity="1" stroke="none" vectornator:layerName="path"/>
<path d="M712.962 786.042L710.332 785.478L712.398 787.545C725.361 799.756 737.009 809.149 748.281 812.531C757.862 815.349 767.068 815.349 777.212 815.349L778.34 815.349C782.285 815.349 785.291 815.349 788.297 815.725C791.49 815.725 794.496 816.1 798.441 816.1C799.193 816.1 799.944 816.1 800.508 816.1C801.259 816.1 802.011 816.1 802.575 816.1C804.077 816.1 805.205 816.1 806.144 815.725C809.713 814.785 811.78 812.719 814.034 810.276C815.162 809.149 816.852 807.271 817.792 805.956C817.98 805.768 818.168 805.392 818.168 805.392L818.543 804.828L818.543 776.273C818.543 765.94 817.604 754.856 812.907 744.335C810.841 739.638 808.023 735.317 804.829 731.184C799.193 727.239 799.944 727.803 795.623 722.355C794.121 720.288 792.993 718.973 792.054 717.47C788.297 713.901 781.721 707.137 775.522 701.126C773.079 699.247 771.013 697.18 769.134 694.738C765.94 691.544 763.31 689.102 762.747 688.351C758.801 684.406 746.402 700.562 748.657 702.816C751.475 705.634 761.619 717.282 764.25 719.912C773.831 729.306 794.496 751.286 797.878 761.431C800.696 770.073 801.072 778.903 801.072 786.417L801.072 795.435C801.072 798.817 801.072 801.447 801.259 803.889L801.072 803.889L791.115 804.265C780.594 804.265 769.134 803.701 758.238 798.817C748.845 794.684 741.33 787.92 734.942 781.533L721.416 769.885C717.659 766.128 705.635 779.654 707.138 782.284C709.205 782.284 711.083 783.787 712.586 785.854M802.199 805.58C804.265 803.513 805.768 801.822 807.647 799.944" fill="#000000" fill-rule="nonzero" opacity="1" stroke="none" vectornator:layerName="path"/>
</g>
<g opacity="1" vectornator:layerName="g">
<path d="M599.302 282.182C599.302 282.182 598.927 271.474 597.799 271.661C593.291 272.789 588.406 273.164 583.521 273.352C583.897 274.479 583.897 275.795 583.897 277.485C583.334 277.485 582.958 277.673 582.582 277.861C582.019 276.358 581.455 275.043 580.703 273.352C580.328 273.352 579.764 273.352 579.388 273.352C574.128 273.352 568.868 272.601 563.983 270.91C559.474 269.407 554.966 267.153 550.645 265.086C543.881 261.892 536.93 257.571 529.416 256.068C527.349 255.693 525.095 255.505 523.592 257.008C521.525 259.262 520.21 262.644 518.519 265.274C516.641 268.468 514.574 271.474 512.696 274.479C512.132 275.419 511.193 276.358 510.817 277.485C510.817 277.485 510.817 277.673 510.817 277.861C510.817 277.861 510.817 277.673 510.817 277.485C509.878 275.043 507.435 272.413 505.932 270.158C503.866 266.965 501.799 263.771 499.921 260.577C498.793 258.699 498.042 256.444 495.412 256.068C492.782 255.693 489.776 256.82 487.521 257.759C481.885 259.826 476.625 262.644 471.177 265.274C471.928 265.838 472.492 266.401 472.868 267.153C472.868 267.528 471.928 268.28 471.177 269.219C470.238 267.904 469.486 267.153 469.11 266.213C467.795 266.777 466.292 267.528 464.977 268.28C461.784 269.783 458.59 270.91 455.396 271.661C456.335 272.976 457.275 274.104 458.402 275.231C454.457 275.231 453.33 275.231 452.578 272.413C447.506 273.54 442.245 273.916 436.985 273.728C435.858 274.292 434.919 274.855 433.791 275.419C433.603 275.043 433.228 274.479 433.04 274.104C433.416 274.104 433.603 273.728 433.979 273.54C430.598 273.352 427.216 272.789 423.834 272.037C423.083 272.037 422.895 278.237 422.895 281.055C423.647 281.806 424.586 282.558 425.337 283.309C424.774 285.939 423.647 288.757 423.271 291.575C423.271 292.515 423.647 293.078 424.21 293.078C429.658 294.205 435.482 294.769 441.118 294.769C445.251 293.266 450.136 292.139 455.584 292.139C456.148 292.139 456.711 292.139 457.275 292.139C460.656 291.012 464.226 289.697 467.607 288.006C474.934 284.436 482.073 280.303 489.776 277.861C491.842 277.11 494.848 276.17 496.915 277.11C498.981 278.049 500.296 281.618 501.424 283.497L501.424 283.497C500.86 285 500.296 286.503 499.921 288.006L499.921 288.006L498.23 293.266C497.666 294.769 498.23 296.648 499.733 297.587L508.75 302.847C509.878 303.411 511.193 303.411 512.32 302.847L521.525 297.587C523.028 296.648 523.78 294.957 523.216 293.266L520.962 286.503L520.962 286.503C520.774 285.564 520.398 284.812 520.21 284.061C520.774 282.933 521.525 281.994 522.277 280.867C523.404 278.8 524.155 276.922 526.786 276.734C529.604 276.546 532.609 277.673 535.052 278.613C542.942 281.618 550.269 285.751 557.784 289.321C563.983 292.139 570.371 293.642 577.134 294.205C578.449 293.078 579.764 291.951 579.952 292.139C584.085 295.896 585.964 291.575 589.533 288.757C589.533 291.012 589.533 292.703 589.533 294.018C592.351 293.83 595.169 293.266 597.987 292.703C599.678 292.327 598.927 283.309 598.927 282.182M547.263 275.795C546.7 274.667 546.324 273.352 545.76 272.225C546.136 272.037 546.324 271.849 546.7 271.661C547.639 272.413 548.39 273.164 549.33 273.916" fill="#000000" fill-rule="nonzero" opacity="1" stroke="none" vectornator:layerName="path"/>
<path d="M598.363 731.56C593.854 730.433 589.157 729.869 584.461 729.869C581.643 730.433 578.637 730.809 575.443 730.809C574.316 730.809 573.377 730.809 572.249 730.809C567.365 731.56 562.668 733.063 558.159 734.942C550.457 738.323 543.13 742.456 535.427 745.65C532.985 746.59 529.979 747.717 527.161 747.529C524.531 747.341 523.968 745.462 522.653 743.396C522.089 742.269 521.337 741.329 520.586 740.202C520.774 739.451 521.15 738.511 521.337 737.76L521.337 737.76L523.592 730.997C524.155 729.306 523.592 727.615 521.901 726.676L512.696 721.227C511.568 720.664 510.065 720.664 509.126 721.227L500.108 726.488C498.606 727.427 498.042 729.118 498.606 730.809L500.296 736.069L500.296 736.069C500.86 737.572 501.424 739.075 501.799 740.578L501.799 740.578C500.672 742.456 499.357 746.026 497.29 746.965C495.036 747.905 492.218 746.965 490.152 746.214C488.273 745.65 486.582 744.899 484.703 744.147C483.2 744.147 481.885 743.772 480.57 742.644C480.195 742.456 480.007 742.081 479.631 741.893C475.686 740.014 471.741 737.948 467.983 736.069C462.535 733.439 457.463 731.56 451.827 730.621C450.512 730.621 449.384 730.621 447.881 730.621C444.5 730.621 441.306 730.245 438.3 729.494C433.603 729.494 429.095 730.057 424.586 730.997C422.895 731.372 423.271 740.202 423.271 741.517C423.271 742.269 423.271 752.226 424.21 752.038C436.422 749.408 449.009 749.783 460.468 753.916C463.287 754.48 465.917 755.419 468.171 756.359C466.856 753.916 465.541 752.038 464.038 749.595C468.923 750.347 469.298 752.977 468.735 756.734C471.177 757.862 473.243 759.177 475.122 760.867C479.255 762.934 483.2 764.813 487.521 766.503C489.964 767.443 492.97 768.57 495.412 768.194C497.854 767.819 498.793 765.564 499.921 763.685C501.799 760.492 503.866 757.298 505.932 754.104C507.435 751.85 509.878 749.22 510.817 746.777L510.817 746.402C510.817 746.402 510.817 746.59 510.817 746.777C511.193 747.717 512.132 748.844 512.696 749.595C514.574 752.601 516.641 755.795 518.519 758.801C520.022 761.431 521.525 764.813 523.592 767.067C525.095 768.57 527.349 768.382 529.416 768.006C536.93 766.503 543.881 762.182 550.645 758.989C554.966 756.922 559.287 754.668 563.983 753.165C568.868 751.474 574.128 750.91 579.388 750.723C585.588 750.723 591.788 751.098 597.799 752.601C598.927 752.789 599.114 742.832 599.302 742.081M485.643 753.728C483.013 754.292 479.443 752.226 476.813 752.601C486.582 746.214 490.715 745.65 492.406 749.595" fill="#000000" fill-rule="nonzero" opacity="1" stroke="none" vectornator:layerName="path"/>
<path d="M766.128 524.718C763.874 522.652 760.492 521.337 757.862 519.646C754.856 517.767 751.663 515.701 748.657 513.822C747.717 513.259 746.778 512.319 745.839 511.943C745.651 511.943 745.463 511.943 745.463 511.943C745.463 511.943 745.651 511.943 745.839 511.943C748.281 511.004 750.911 508.562 753.165 507.059C756.359 504.992 759.553 502.926 762.747 501.047C764.625 499.92 766.504 499.169 767.068 497.102C766.504 494.848 766.316 492.593 766.128 490.151C765.94 489.587 765.753 489.024 765.565 488.648C762.559 480.758 758.426 473.619 755.044 466.104C749.032 453.329 748.281 438.863 751.287 425.149C751.475 424.21 741.518 424.21 740.766 424.21C739.451 424.21 730.621 424.022 730.246 425.525C729.682 428.343 729.118 431.161 728.931 433.979C729.87 434.73 730.621 435.482 731.561 436.421C730.058 442.433 726.676 449.196 733.439 454.456C732.688 456.147 731.561 456.147 730.246 455.959C731.373 460.28 733.064 464.601 735.13 468.922C738.512 476.249 742.833 483.388 745.275 491.09C745.839 493.157 746.966 496.163 746.027 498.229C745.087 500.296 741.518 501.611 739.639 502.738L739.639 502.738C738.136 502.174 736.633 501.611 735.13 501.235L735.13 501.235L729.87 499.544C728.179 498.981 726.488 499.544 725.549 501.047L720.289 510.065C719.725 511.192 719.725 512.507 720.289 513.634L725.737 522.84C726.676 524.343 728.367 525.094 730.058 524.531L736.821 522.276L736.821 522.276C737.573 522.088 738.512 521.713 739.263 521.525C740.391 522.088 741.33 522.84 742.457 523.403C744.524 524.531 746.402 525.282 746.59 527.912C746.778 530.73 745.651 533.736 744.711 536.178C741.706 544.069 737.573 551.396 734.191 558.91C734.191 559.098 734.003 559.474 733.815 559.662C733.252 564.734 731.936 569.619 729.682 574.128C728.555 582.394 729.118 590.66 730.809 598.926C731.185 600.617 740.203 599.865 741.33 599.865C742.269 599.865 752.226 599.49 751.85 598.55C750.535 592.538 749.972 586.339 750.16 580.139C750.16 574.879 750.911 569.807 752.602 564.734C754.105 560.225 756.359 555.904 758.426 551.396L758.426 551.396C759.741 547.45 761.432 543.881 763.874 540.499C765.377 537.118 766.692 533.736 767.443 530.167C767.819 528.288 768.007 525.846 766.504 524.343M744.524 484.139C744.524 482.824 744.148 481.509 743.96 480.194C744.336 480.194 744.524 480.194 744.899 480.006C745.275 481.321 745.651 482.636 746.027 483.951C745.463 483.951 745.087 484.139 744.524 484.327" fill="#000000" fill-rule="nonzero" opacity="1" stroke="none" vectornator:layerName="path"/>
<path d="M302.284 510.065L297.024 501.047C296.085 499.544 294.394 498.981 292.703 499.544L287.443 501.235L287.443 501.235C285.94 501.611 284.437 502.174 282.934 502.738L282.934 502.738C281.055 501.611 277.486 500.296 276.547 498.229C275.607 496.163 276.547 493.157 277.11 491.09C279.552 483.388 283.873 476.249 287.255 468.922C291.012 460.844 293.642 452.953 293.83 443.936C293.83 437.736 293.455 431.536 292.14 425.525C291.764 423.834 282.934 424.21 281.619 424.21C280.868 424.21 270.723 424.21 271.098 425.149C274.104 438.863 273.353 453.329 267.341 466.104C263.772 473.619 259.639 480.945 256.633 488.648C256.633 488.836 256.633 489.212 256.445 489.399C257.008 489.963 257.196 490.527 257.196 491.09C257.196 491.842 256.445 492.593 255.13 493.345C254.942 494.472 254.754 495.599 255.13 496.538C255.505 498.981 257.572 499.92 259.639 501.047C262.832 502.926 266.026 504.992 269.22 507.059C271.474 508.562 274.104 511.004 276.547 511.943C276.547 511.943 276.734 511.943 276.922 511.943C276.922 511.943 276.734 511.943 276.547 511.943C275.419 512.319 274.48 513.259 273.541 513.822C270.535 515.701 267.341 517.767 264.335 519.646C261.705 521.149 258.323 522.652 256.069 524.718C254.378 526.221 254.566 528.476 255.13 530.542C256.633 538.057 260.954 545.008 264.147 551.771C264.335 552.335 264.711 552.899 264.899 553.274C266.402 553.086 268.093 553.086 269.032 553.65C272.414 556.092 275.419 559.098 278.989 562.292C275.795 563.795 273.353 565.11 270.347 566.425C270.347 566.425 270.347 566.425 270.159 566.425C270.159 566.425 270.347 566.425 270.535 566.613L270.535 566.613C270.535 566.613 272.038 567.928 272.414 568.116C274.104 568.867 276.171 569.243 275.607 571.873C275.044 573.752 273.916 575.067 272.226 575.443C272.226 576.946 272.601 578.636 272.601 580.139C272.601 586.339 272.226 592.538 270.723 598.55C270.535 599.49 280.492 599.865 281.243 599.865C282.37 599.865 291.388 600.617 291.764 598.926C293.642 590.284 294.206 581.266 292.703 572.625L292.703 572.625L292.703 572.249C291.952 567.552 290.637 563.043 288.57 558.722C285.188 551.02 281.055 543.693 278.05 535.99C277.11 533.548 275.795 530.542 276.171 527.724C276.359 525.094 278.237 524.531 280.304 523.216C281.431 522.652 282.37 521.9 283.498 521.337C284.249 521.525 285.188 521.9 285.94 522.088L285.94 522.088L292.703 524.343C294.394 524.906 296.085 524.343 297.024 522.652L302.284 513.446C302.848 512.319 302.848 510.816 302.284 509.877M275.419 474.558C275.419 474.558 276.547 473.243 277.298 473.055C277.486 473.055 278.237 473.619 279.177 473.994C278.425 474.934 277.862 475.873 277.298 475.873C276.922 475.873 276.171 474.934 275.607 474.558" fill="#000000" fill-rule="nonzero" opacity="1" stroke="none" vectornator:layerName="path"/>
</g>
<g opacity="1" vectornator:layerName="g">
<path d="M391.333 344.178C387.388 337.979 378.746 326.143 373.486 320.883C371.232 318.628 368.226 318.816 365.971 320.883C365.22 321.446 364.656 322.198 364.093 323.137C361.463 326.894 359.02 330.652 356.39 334.597C355.451 335.912 354.887 336.1 353.384 335.161C352.069 334.033 350.378 332.906 348.688 332.343C345.87 331.403 343.052 330.652 340.234 330.276C335.161 329.525 331.404 326.331 330.089 321.822C329.713 320.319 329.901 319.192 331.592 318.44C334.973 317.125 338.167 315.622 341.549 314.683C345.682 313.556 349.439 314.683 352.445 317.689L363.905 307.544C363.905 306.417 363.529 305.853 362.59 305.478C360.335 304.35 358.269 303.411 356.014 302.284C350.378 299.278 344.742 296.084 340.234 291.387C339.67 290.636 338.543 290.448 337.603 290.072C335.913 289.509 334.034 288.945 332.343 288.382C330.464 287.818 328.586 287.254 326.707 286.879C324.828 286.691 322.762 286.879 320.883 287.067C320.32 287.067 319.944 287.067 319.38 287.442C317.877 287.818 316.562 289.133 315.247 290.26C313.744 291.575 312.241 293.078 310.738 294.393C295.333 310.55 288.006 333.47 287.819 355.45C287.819 361.274 293.079 354.887 294.394 353.384C297.776 349.063 300.781 342.299 300.781 336.663C300.781 326.519 303.412 318.44 309.048 312.616L314.496 311.677C312.617 314.871 311.114 318.252 310.363 320.507C308.484 327.646 311.114 333.47 315.435 338.73C319.005 343.239 320.695 346.245 325.016 349.626C327.271 351.505 329.713 353.571 331.592 355.826C334.598 359.208 335.725 365.595 334.598 371.231C328.21 376.303 321.071 380.249 313.369 382.879C312.429 383.067 317.689 391.709 318.065 392.46C318.817 393.587 323.138 401.29 324.828 400.726C330.652 398.847 336.1 396.029 341.173 392.836C340.046 392.084 339.106 391.333 337.791 390.581C338.543 387.763 339.106 385.133 339.858 382.315C345.682 382.315 347.372 383.255 348.5 387.2C351.881 384.194 354.699 381 357.329 377.243C360.335 373.673 362.778 369.352 364.281 364.28C365.596 359.959 365.22 355.638 364.656 351.317C363.717 343.615 365.971 336.476 369.541 329.9C370.104 328.773 370.856 328.022 371.983 329.149C374.05 331.779 380.061 340.984 381.752 343.99C383.443 346.996 383.255 350.002 381.001 353.008C379.686 354.887 378.558 356.765 377.243 358.456C376.304 359.771 375.928 360.71 377.243 362.026C377.995 362.777 378.558 363.716 379.122 364.468C381.376 367.286 383.631 370.104 386.073 373.11C386.449 372.546 386.637 372.358 386.825 371.982C389.079 365.407 391.709 358.832 392.648 351.693C393.024 348.875 392.461 346.245 390.958 343.99M321.635 288.945C323.701 289.885 325.392 290.636 327.834 291.763M329.901 327.082C329.901 327.082 328.962 326.331 328.398 325.767C329.337 325.391 330.089 325.016 330.464 325.204C331.028 325.204 331.216 326.143 331.592 326.519C331.028 326.706 330.464 327.082 330.089 327.082" fill="#000000" fill-rule="nonzero" opacity="1" stroke="none" vectornator:layerName="path"/>
<path d="M684.218 732.312C685.909 732.875 687.788 733.439 689.479 734.002C691.545 734.566 693.424 735.317 695.49 735.505C697.369 735.881 700.938 735.693 702.817 734.754C703.193 734.754 703.569 734.378 703.944 734.19C706.574 732.312 708.829 730.245 711.083 727.991C726.488 711.834 733.815 688.914 734.003 666.934C734.003 661.11 728.743 667.497 727.428 669C724.046 673.321 721.04 680.085 721.04 685.721C721.04 695.865 718.41 703.944 712.774 709.768L707.326 710.707C709.205 707.513 710.708 704.132 711.459 701.877C713.338 694.738 710.708 688.914 706.387 683.654C702.817 679.145 701.126 676.139 696.805 672.57C694.551 670.691 692.109 668.625 690.23 666.37C687.224 662.801 685.909 656.601 687.224 650.965C693.424 645.893 700.751 641.948 708.453 639.317C709.392 638.942 704.132 630.488 703.756 629.736C703.005 628.609 698.684 620.906 697.181 621.47C691.357 623.349 685.721 626.355 680.461 629.548C673.886 633.681 669.001 638.942 664.68 644.953C661.674 648.523 659.232 652.844 657.729 657.916C656.414 662.237 656.79 666.558 657.353 670.879C658.293 678.582 656.038 685.721 652.469 692.484C651.905 693.611 651.154 694.362 650.026 693.235C647.772 690.605 641.948 681.4 640.257 678.394C638.567 675.388 638.942 672.382 641.009 669.564C642.324 667.685 643.451 665.807 644.766 664.116C645.705 662.801 646.081 661.861 644.766 660.546C644.015 659.795 643.451 658.856 642.887 658.104C640.633 655.286 638.379 652.468 635.936 649.462C635.561 649.838 635.373 650.214 635.185 650.589C632.743 657.165 630.3 663.74 629.361 670.879C628.985 673.697 629.549 676.327 631.052 678.582C632.555 681.024 634.809 684.218 637.251 687.599C638.191 687.599 639.13 687.599 639.882 687.599L640.069 688.726C639.506 688.726 638.942 689.102 638.191 689.102C641.76 693.987 645.705 699.059 648.711 701.877C650.966 704.132 653.972 703.944 656.226 701.877C656.978 701.314 657.541 700.562 657.917 699.623C660.547 695.865 663.177 692.108 665.619 688.163C666.559 686.848 667.31 686.66 668.625 687.787C669.94 688.914 671.631 690.042 673.322 690.417C675.952 691.357 678.958 692.108 681.776 692.484C686.848 693.235 690.606 696.429 691.921 700.938C692.297 702.441 692.109 703.568 690.606 704.319C687.224 705.447 684.03 707.137 680.461 708.077C676.328 709.204 672.57 708.077 669.565 705.071L664.868 709.204C664.868 709.204 664.116 710.707 662.989 711.458C662.989 711.458 662.614 711.458 662.426 711.458L658.105 715.216C658.105 716.343 658.48 716.907 659.42 717.282C661.674 718.222 663.741 719.349 665.807 720.476C671.443 723.482 677.079 726.676 681.588 731.56C682.152 732.312 683.279 732.499 684.218 732.875" fill="#000000" fill-rule="nonzero" opacity="1" stroke="none" vectornator:layerName="path"/>
<path d="M735.13 321.258C735.13 321.258 735.13 320.319 734.754 319.755C733.627 316.75 730.058 313.556 727.803 311.489C711.647 296.084 688.727 288.757 666.747 288.569C661.111 288.569 667.31 293.83 668.813 295.145C673.134 298.526 679.709 301.532 685.345 301.532C695.49 301.532 703.569 304.162 709.392 309.798L710.332 315.247C707.138 313.368 703.756 311.865 701.502 311.114C694.363 309.235 688.539 311.865 683.279 315.998C678.958 319.568 675.764 321.258 672.383 325.579C670.504 327.834 668.437 330.276 666.183 332.155C662.801 335.161 656.414 336.476 650.778 335.161C647.396 331.027 644.578 326.519 642.324 321.634C639.13 321.634 636.876 319.38 636.876 316.937C636.876 315.81 637.064 315.059 637.439 314.307C634.809 315.434 630.113 318.252 629.549 318.628C628.422 319.38 620.719 323.701 621.283 325.204C623.161 331.027 625.979 336.663 629.361 341.924C630.488 343.615 631.615 345.117 632.743 346.62C633.118 345.493 633.494 344.554 633.87 343.427C634.621 343.427 635.185 343.615 635.936 343.615C636.124 345.681 636.5 347.748 636.876 350.941C639.318 353.384 641.948 355.638 644.954 357.705C648.523 360.71 652.844 363.153 657.917 364.656C662.238 365.971 666.559 365.595 670.88 365.031C678.582 364.092 685.721 366.346 692.297 369.916C693.424 370.48 694.175 371.231 693.048 372.358C690.418 374.613 681.212 380.436 678.206 382.315C675.201 384.006 672.195 383.63 669.189 381.564C667.31 380.249 665.432 379.121 663.741 377.806C662.426 376.867 661.486 376.491 660.171 377.806C659.42 378.558 658.48 379.121 657.729 379.685C654.911 381.939 652.093 384.194 649.087 386.636C649.651 386.824 649.839 387.2 650.214 387.388C656.79 389.83 663.365 392.272 670.504 393.211C673.322 393.587 675.952 393.024 678.206 391.521C684.406 387.575 696.242 378.934 701.502 373.673C703.756 371.419 703.569 368.413 701.502 366.159C700.938 365.407 700.187 365.031 699.248 364.468C695.49 361.838 691.733 359.395 687.788 356.765C686.473 355.826 686.285 355.074 687.412 353.759C688.539 352.444 689.479 350.753 690.042 349.251C690.981 346.433 691.733 343.615 692.109 340.797C692.86 335.724 696.054 331.967 700.563 330.652C702.066 330.276 703.193 330.276 703.944 331.967C705.259 335.348 706.762 338.542 707.702 342.112C708.829 346.245 707.702 350.002 704.696 353.008L714.841 364.468C715.968 364.468 716.531 364.092 716.907 363.153C718.034 361.086 718.974 358.832 720.101 356.765C723.107 351.129 726.3 345.493 730.997 340.984C731.749 340.233 731.936 339.294 732.312 338.354C732.876 336.663 733.439 334.785 734.003 333.094C735.13 328.961 735.882 325.767 735.13 321.446M667.31 386.448C668.306 383.818 669.94 383.067 672.195 384.194M705.447 328.397C707.702 329.149 709.392 329.712 711.271 330.464M720.664 312.053C724.046 312.053 726.488 311.489 726.113 315.434M728.931 321.258C729.494 322.761 730.058 324.076 731.185 326.706" fill="#000000" fill-rule="nonzero" opacity="1" stroke="none" vectornator:layerName="path"/>
<path d="M392.836 680.46C388.703 673.885 383.443 669 377.431 664.679C373.862 661.674 369.541 659.231 364.468 657.728C360.147 656.413 356.014 656.789 351.693 657.353C343.991 658.292 336.852 656.225 330.089 652.468C329.149 651.904 328.21 651.153 329.525 650.026C332.155 647.959 341.361 641.948 344.367 640.257C347.372 638.566 350.378 638.754 353.384 641.008C355.075 642.323 357.142 643.45 358.832 644.766C360.147 645.705 361.087 646.081 362.402 644.766C363.153 644.014 364.093 643.45 364.844 642.887C367.662 640.632 370.48 638.378 373.486 635.936C372.922 635.56 372.735 635.372 372.547 635.184C365.971 632.742 359.396 630.3 352.257 629.36C349.439 628.985 346.809 629.548 344.554 631.051C338.355 634.996 326.331 643.638 321.259 648.899C319.005 651.153 319.192 654.159 321.259 656.413C321.823 657.165 322.762 657.541 323.513 658.104C327.271 660.734 331.028 663.177 334.973 665.807C336.288 666.746 336.476 667.31 335.537 668.813C334.41 670.128 333.282 671.818 332.719 673.509C331.78 676.327 331.028 679.145 330.652 681.963C329.713 687.036 326.519 690.793 322.198 692.108C320.695 692.484 319.568 692.296 319.005 690.605C317.689 687.224 316.187 684.03 315.247 680.648C314.12 676.515 315.247 672.758 318.253 669.752L308.108 658.292C306.981 658.292 306.417 658.668 305.854 659.607C304.915 661.861 303.787 663.928 302.66 666.182C299.654 671.818 296.46 677.454 291.576 681.963C290.824 682.527 290.637 683.654 290.261 684.593C289.697 686.284 289.134 688.163 288.57 689.854C287.443 693.611 286.691 697.556 287.443 701.689C288.006 705.447 291.952 709.016 294.582 711.458C310.738 726.863 333.658 734.19 355.639 734.378C361.463 734.378 355.075 729.118 353.572 727.803C349.251 724.421 342.488 721.415 337.04 721.415C326.895 721.415 318.817 718.785 312.993 713.149L312.053 707.701C315.247 709.58 318.629 711.083 320.883 711.834C327.834 713.713 333.846 711.083 339.106 706.762C343.615 703.192 346.621 701.501 350.19 697.18C352.069 694.738 354.136 692.484 356.39 690.605C359.96 687.599 366.159 686.472 371.795 687.599C372.547 688.726 373.298 689.666 374.05 690.793C374.05 690.793 374.05 690.417 374.237 690.417C375.365 690.981 376.68 691.544 377.807 692.108C377.431 692.86 377.055 693.423 376.492 694.175C376.304 694.175 376.116 693.987 375.928 693.799C378.934 698.496 381.376 703.568 383.255 709.204C383.631 710.143 392.085 704.883 392.836 704.507C393.964 703.756 401.666 699.435 401.102 697.744C399.036 691.92 396.218 686.284 393.024 681.024M389.455 681.4C389.455 681.4 388.328 679.897 388.328 679.145C388.328 678.957 389.455 678.018 389.83 678.206C390.394 678.582 390.958 679.333 391.521 679.897C390.958 680.272 390.582 680.648 389.643 681.4" fill="#000000" fill-rule="nonzero" opacity="1" stroke="none" vectornator:layerName="path"/>
</g>
<g opacity="1" vectornator:layerName="g">
<path d="M519.271 395.278C520.774 393.024 509.126 371.043 501.611 378.558L501.048 394.339C483.013 394.339 480.57 419.137 496.163 425.9L496.163 433.791C481.885 436.797 470.425 433.415 456.335 433.415L456.335 439.803C453.142 434.166 445.815 432.851 442.433 428.155C404.296 415.38 382.316 415.568 374.425 435.857C374.425 436.797 374.613 437.548 374.801 438.487C374.801 443.936 373.862 448.82 371.419 453.517C371.419 453.705 371.419 453.893 371.232 454.08C370.856 461.219 371.232 469.486 372.359 479.255C373.11 488.46 371.419 500.296 372.359 511.192C373.486 514.386 374.05 517.767 374.237 521.149C375.177 524.343 376.492 527.349 378.371 529.979C393.964 555.904 406.926 519.082 448.445 540.875C452.954 542.378 457.463 543.881 461.971 545.196C465.165 542.378 471.177 541.814 471.177 547.263C479.255 548.765 487.709 548.765 496.351 548.578C498.793 578.073 490.527 595.732 501.236 610.574C503.678 609.634 506.496 608.695 509.69 607.568C511.193 610.198 512.508 612.828 514.011 615.458C508.187 618.652 501.799 619.967 496.539 623.537C496.915 628.609 494.285 635.56 503.302 635.56C508.75 635.56 526.41 632.366 526.41 626.918C526.41 615.458 526.41 599.302 526.41 580.703C526.41 580.139 526.034 579.764 525.846 579.2C525.283 575.818 524.907 572.249 524.343 568.867C524.343 564.734 524.907 560.977 526.222 557.219C526.222 533.36 526.222 507.623 526.222 484.139C525.846 481.133 525.471 478.315 525.095 475.309C525.095 472.116 525.471 468.922 526.222 465.916C526.222 450.511 526.222 436.609 526.222 426.088L526.222 426.088C526.222 426.088 526.222 424.773 526.222 423.082C540.5 414.44 532.234 400.163 519.647 394.714M462.535 443.184C460.656 444.687 458.966 446.19 457.087 447.693M427.78 525.47L427.78 519.27L429.283 519.27C429.283 521.337 429.47 523.403 429.658 525.47M495.975 475.497L495.975 520.773C493.157 521.337 490.339 521.713 487.521 522.088L487.521 522.088C481.51 522.652 475.686 522.652 470.05 522.088L469.862 522.088C461.971 521.337 454.269 519.646 446.566 517.204C446.566 517.204 446.378 517.204 446.191 517.204C443.56 516.452 440.93 515.513 438.3 514.574C436.985 514.198 435.858 513.822 434.543 513.259C429.846 511.568 424.962 509.877 419.889 508.75C418.574 508.562 417.447 508.186 416.132 507.998C413.69 507.435 411.247 507.247 408.617 506.871C407.302 506.871 406.175 506.871 404.86 506.871C403.92 506.871 402.981 506.871 401.854 506.871C399.787 506.871 397.533 507.247 395.466 507.623C394.527 507.81 393.4 507.998 392.461 508.374L392.461 499.169C392.461 499.169 392.085 499.544 391.709 499.732C391.146 497.853 390.582 496.351 390.018 495.035L389.83 495.035L389.83 495.035C389.83 495.035 389.83 495.035 389.83 494.848C388.515 494.66 387.012 494.284 385.697 494.096C385.697 493.72 385.697 493.345 385.51 492.781C386.825 492.405 387.952 492.03 389.267 491.654C389.455 492.781 389.643 493.72 389.83 494.848C389.83 494.848 389.83 494.848 390.018 494.848C390.018 494.848 390.018 494.848 390.018 495.035L392.461 495.035C392.836 489.963 392.836 485.078 392.461 480.382C392.085 472.867 391.333 465.916 392.461 460.468C392.461 460.468 392.461 460.468 392.461 460.28C393.024 456.711 394.527 453.705 397.345 451.45C400.539 448.82 405.423 447.129 412.938 446.754L413.314 446.754C414.817 446.754 416.32 446.754 418.011 446.754L418.386 446.754C419.138 445.626 420.453 444.687 422.331 444.123C422.331 445.439 421.956 446.378 421.58 447.129C428.531 448.069 435.67 449.759 442.809 452.014C443.185 452.014 443.56 452.202 443.936 452.39C453.517 455.208 463.099 458.589 472.868 460.468C473.995 460.656 475.31 461.031 476.437 461.031C483.013 462.159 489.588 462.722 496.163 462.159L496.163 468.546C497.478 468.546 498.981 470.613 501.236 472.304C498.981 473.619 497.666 474.934 496.163 475.685M504.429 590.472C502.739 587.842 501.799 587.09 504.429 585.4M509.126 590.472C512.132 590.472 513.823 590.096 515.326 590.472M519.083 524.155L517.58 524.155C517.956 522.088 513.823 519.646 519.083 517.204" fill="#000000" fill-rule="nonzero" opacity="1" stroke="none" vectornator:layerName="path"/>
<path d="M629.549 563.231C628.797 553.274 632.743 543.317 620.907 534.488C613.204 528.664 614.895 512.507 613.017 504.053C611.514 497.478 609.823 490.902 608.32 484.139C607.756 484.515 606.629 484.515 606.253 484.139C604.187 482.448 604.563 480.758 607.005 478.879C605.126 471.552 603.06 464.413 600.805 457.274C600.43 455.771 599.866 454.268 598.739 453.329C597.611 452.577 596.296 452.39 595.169 452.202C585.588 451.075 576.007 450.511 566.613 450.323C563.42 450.323 560.414 450.323 557.22 450.323C556.469 450.887 555.717 451.45 554.778 452.202C554.778 451.45 554.778 450.887 554.966 450.323C550.645 450.699 546.324 451.45 542.191 452.765C539.748 453.705 537.306 454.832 535.991 457.274C535.427 458.777 535.24 460.468 535.24 461.971C535.052 472.491 534.676 482.824 534.3 493.345C533.925 506.307 533.737 519.646 538.621 531.67C544.445 545.572 556.844 555.904 570.371 562.855C575.819 543.693 583.897 525.282 594.606 508.562C594.981 507.998 595.357 507.623 595.921 507.435C596.484 507.435 596.86 507.81 597.236 507.998C600.242 510.628 603.248 513.446 606.066 516.264C606.441 516.264 606.817 516.077 607.193 515.889C607.381 516.452 607.568 517.204 607.756 517.767L607.756 517.767C608.508 520.585 609.259 523.403 610.199 526.034C610.762 527.912 611.326 529.979 611.889 531.857C612.453 534.3 611.138 535.99 608.884 536.366C608.508 536.366 608.132 536.366 607.756 536.366C608.132 537.869 608.508 539.56 609.071 541.063C612.453 551.208 616.962 561.54 614.332 571.873C613.392 576.006 611.138 579.576 608.508 582.957C608.884 580.327 608.508 577.509 606.817 575.443C600.43 567.364 593.291 572.625 592.727 581.266C592.163 588.03 594.23 594.793 595.169 601.368C593.854 607.004 592.351 612.64 591.6 618.276C591.412 620.531 591.224 622.785 591.975 624.852C594.606 631.615 602.872 626.73 605.502 622.409C610.574 613.955 601.557 597.423 613.768 591.975C617.901 590.096 621.095 587.654 623.537 585.024C622.974 581.642 622.598 579.012 622.222 576.382C622.222 575.255 622.598 573.376 623.161 573.188C627.482 571.873 627.858 567.928 629.361 564.734C629.549 564.734 629.737 564.922 629.925 565.298C629.925 564.358 629.925 563.607 629.925 562.668M555.905 480.758C554.778 480.006 553.838 479.067 552.711 478.315L553.275 477.752L556.469 480.006M563.42 531.857C562.105 531.67 560.977 529.979 558.535 528.288C560.79 526.785 561.917 525.658 563.044 525.47C565.11 525.094 566.426 526.409 566.613 528.664C566.613 531.106 565.298 532.233 563.232 531.857M570.559 539.56L570.559 531.106M578.073 534.488C576.758 533.736 575.631 532.797 573.565 531.67C576.946 529.603 578.637 529.791 579.388 531.857C579.576 532.421 578.449 533.548 577.885 534.488M596.672 585.775C598.739 587.278 600.805 588.593 602.872 589.908" fill="#000000" fill-rule="nonzero" opacity="1" stroke="none" vectornator:layerName="path"/>
<path d="M536.179 438.863L536.179 443.184C537.306 444.687 539.185 446.378 540.5 446.566C551.396 447.129 562.292 446.941 573.001 446.941C573.001 446.941 586.152 447.505 592.163 446.002C594.418 445.439 595.921 442.996 597.611 440.554L597.611 436.797C595.169 435.669 592.727 434.354 590.285 434.354C573.752 433.979 557.408 433.979 540.876 434.73C539.185 434.73 537.306 436.984 535.991 439.239" fill="#000000" fill-rule="nonzero" opacity="1" stroke="none" vectornator:layerName="path"/>
<path d="M548.202 418.01C546.512 418.01 544.821 421.016 543.13 423.646L543.13 426.652C545.384 428.155 547.639 429.846 550.081 430.221C555.341 430.973 560.977 430.221 566.426 430.221C571.874 430.221 577.322 430.597 582.77 430.221C585.588 430.033 588.406 429.094 591.036 428.343L591.036 425.337C588.782 422.143 586.527 418.198 584.085 418.01C579.201 417.446 574.504 417.258 569.619 417.258C569.807 417.634 569.995 417.822 569.995 418.198C569.995 419.137 568.68 419.889 567.741 421.204C566.801 420.076 565.298 418.949 565.486 418.574C565.674 418.01 566.05 417.634 566.426 417.258C560.414 417.258 554.214 417.446 548.202 417.822" fill="#000000" fill-rule="nonzero" opacity="1" stroke="none" vectornator:layerName="path"/>
</g>
<path d="M988.751 483.388C987.624 479.067 986.872 474.746 986.872 470.237C986.872 470.988 986.684 471.552 986.496 472.491C983.491 467.607 981.988 465.165 980.297 462.347C984.242 461.595 986.121 461.219 987.06 462.347C987.06 461.783 987.06 461.219 987.06 460.656C982.363 411.247 970.528 363.341 951.553 320.507C944.226 320.883 940.469 311.489 945.354 306.417C893.69 195.387 801.072 108.781 690.418 62.9411C690.981 67.0741 690.042 71.2072 689.854 76.0918C661.674 49.0389 622.974 37.0154 581.831 31.5672C567.177 31.5672 552.336 31.1915 537.682 30.2522C533.549 30.0643 529.604 29.125 526.034 27.8099C509.878 27.622 493.721 27.8099 478.504 27.8099C478.128 29.3128 477.752 30.44 477.377 31.5672C461.971 26.307 432.101 28.3735 420.829 41.5242C420.265 41.3363 419.701 40.9606 419.326 40.7727C419.889 38.8941 419.889 36.8275 421.016 35.5125C410.308 37.579 399.6 40.0213 388.891 43.0271C375.74 48.4753 365.971 52.6084 356.014 56.7414C356.578 55.2385 357.142 53.9234 357.705 52.4205C344.93 56.9293 331.78 61.8138 319.38 67.6377C319.944 68.5771 320.695 69.3285 321.447 70.2679C319.005 70.6436 317.314 70.08 315.999 69.1407C287.819 81.9156 261.893 96.7571 238.034 113.289C238.597 114.229 237.47 114.98 236.907 116.107C236.531 115.544 236.155 115.168 235.779 114.792C229.956 118.925 224.32 123.059 218.684 127.379C217.744 129.07 216.805 130.761 215.678 132.264C216.429 132.452 217.181 132.828 217.932 133.203C217.744 133.767 217.368 134.331 217.181 134.894C216.429 134.518 215.49 133.955 214.738 133.579C210.417 139.027 204.593 143.16 197.079 145.227C188.061 153.117 179.231 161.196 171.153 169.462C171.153 169.65 171.529 170.025 171.717 170.213C170.777 170.213 170.214 170.777 169.65 171.153C169.65 171.153 169.65 170.965 170.026 170.777C168.711 171.153 167.584 171.528 166.644 171.904C166.644 171.904 166.644 172.28 166.644 172.468C166.644 172.468 166.644 172.468 166.456 172.468C166.456 172.843 166.832 173.407 167.02 173.783C167.584 175.286 168.147 177.352 169.274 180.546C166.456 178.855 164.954 177.916 163.638 177.164C152.179 189.376 141.47 201.963 131.701 215.113C135.083 218.119 135.271 218.871 131.889 223.004C130.386 220.749 129.071 219.622 129.071 218.495C113.478 239.348 99.7636 261.329 87.928 284.249C89.2431 285.751 90.3703 287.067 91.6853 288.382C91.1217 288.945 90.5581 289.509 89.9945 289.885C88.8673 288.757 87.928 287.442 86.9886 286.315C84.5464 290.824 82.4798 295.521 80.2254 300.029C81.3526 300.969 82.6677 301.908 83.9828 303.035C83.0434 306.793 82.1041 310.55 80.9769 315.622C59.7479 319.755 54.8634 377.055 46.5972 396.969C47.3487 397.908 48.1002 399.035 48.6638 399.975C47.9123 399.975 46.973 399.975 45.8457 399.975C40.9612 428.718 31.5678 459.716 36.2645 488.272C35.5131 489.587 34.7616 490.714 33.8223 491.842C34.3859 524.155 31.0042 560.601 42.2763 590.848C41.3369 591.411 40.5855 591.599 40.0219 591.975C42.4641 607.568 45.8457 622.973 49.791 638.378C53.924 643.826 56.5542 650.402 57.4935 657.353C57.8692 657.353 58.245 657.353 58.6207 657.353C67.0747 714.276 102.582 766.879 136.961 814.222C138.652 813.846 140.343 813.658 142.222 813.658C144.476 817.415 152.742 822.676 147.294 826.809C180.922 867.012 225.635 904.21 275.983 932.766C282.183 934.832 288.382 937.463 294.206 940.656C297.024 942.159 299.466 944.226 301.721 946.48C326.143 958.504 351.506 968.648 377.243 976.163C381.189 973.157 384.57 972.782 389.079 973.721C408.993 994.011 520.586 1004.91 538.809 987.811C539.373 991.756 540.5 992.508 541.439 994.762C578.637 992.32 614.895 985.369 649.839 974.472C655.475 971.842 661.298 969.776 667.31 967.897C684.406 957.189 702.066 947.983 721.416 945.729C732.5 940.281 743.396 934.457 753.917 928.069C753.729 928.069 753.541 927.881 753.353 927.693C755.232 926.003 755.232 925.063 756.547 926.378C762.371 922.809 768.007 919.239 773.643 915.482C775.71 908.719 775.897 900.828 781.721 910.034C799.193 898.01 815.725 884.86 831.506 870.77C828.688 869.83 827.185 867.764 826.997 864.194C830.942 862.691 833.948 863.255 836.578 866.073C874.716 830.566 907.592 788.86 932.766 742.269C927.318 732.875 932.766 733.627 938.59 729.494C938.59 730.057 938.59 730.809 938.59 731.372C939.154 730.245 939.718 729.118 940.281 727.991L940.281 727.991C940.281 727.991 940.281 726.676 940.281 726.112C940.469 726.112 940.845 726.112 941.22 726.112C977.855 655.474 994.011 568.116 989.502 483.012M37.2039 460.092C39.0825 459.529 40.7733 458.777 42.4641 458.026C42.652 458.589 43.0277 459.153 43.2156 459.904M44.3428 478.691C44.3428 478.691 42.4641 478.127 41.5248 477.94C41.9005 475.497 43.4035 476.812 44.9064 477.188M969.776 409.368C969.776 409.368 969.025 410.119 968.461 410.495C966.77 408.617 965.267 406.926 963.577 405.047C966.77 405.235 968.461 406.926 969.776 409.18M906.841 250.62C906.841 250.62 907.78 250.62 908.156 250.62C908.156 251.935 908.156 253.438 908.344 254.753C907.78 254.753 907.217 254.753 906.653 254.753L906.653 250.62M757.299 106.526C758.426 106.902 759.553 107.09 760.68 107.466C760.68 108.029 760.68 108.593 760.492 109.156L757.299 109.156C757.299 109.156 757.299 107.466 757.299 106.714M726.488 89.9939C727.616 89.9939 728.743 91.4969 729.87 92.4362C728.931 93.5634 727.991 94.6906 726.676 96.5693C723.107 93.9391 722.543 91.309 726.676 89.9939M647.584 53.3598C646.269 51.8569 644.766 50.354 643.075 48.4753M627.482 43.4029C627.482 43.4029 628.61 44.5301 628.985 45.0937C627.107 46.2209 626.543 47.9117 624.852 45.2815M617.15 60.6866C620.907 62.9411 616.774 65.5712 614.332 61.626M530.543 40.2091C533.549 42.0878 533.173 43.7786 531.858 45.6573M504.054 44.7179C500.672 44.9684 498.286 43.1524 496.915 39.2698M400.163 47.1602L400.163 54.2992M280.116 105.587C280.116 105.587 281.619 107.466 282.183 108.593C279.74 110.471 279.177 108.968 277.298 106.902C278.613 106.338 279.74 105.399 280.116 105.775M231.834 141.657C233.149 142.033 234.464 142.409 235.592 142.785C235.404 143.348 235.028 144.1 234.652 144.663C233.525 143.724 230.143 143.16 231.646 141.47M59.7479 374.425C59.7479 374.425 60.8751 374.425 61.6266 374.613C61.6266 377.055 61.8145 379.685 62.0023 382.691C60.6873 382.691 59.56 382.503 58.245 382.315M51.2939 392.272C53.5483 393.587 53.1726 394.151 51.8575 396.593M105.587 744.147C102.957 742.832 99.3879 742.644 101.83 737.196C104.836 737.572 107.654 738.136 111.787 738.699C109.157 741.141 107.466 742.456 105.775 744.147M123.059 779.091C119.865 777.4 119.865 776.085 123.059 774.394M196.703 867.388C193.697 867.388 193.509 865.697 192.57 863.255C193.885 862.691 195.2 862.316 197.079 861.564C196.891 864.006 196.703 865.509 196.515 867.388M283.873 931.639C282.746 931.263 280.68 931.639 281.055 929.948L283.873 929.948M608.508 962.825C608.132 954.371 612.453 959.067 614.707 963.012M948.359 697.556C947.984 696.241 947.42 694.926 947.044 693.611C947.42 693.611 947.984 693.611 948.359 693.423C948.547 694.738 948.923 696.053 949.111 697.18M950.238 635.748C950.614 633.494 950.802 631.239 951.177 629.173C950.05 637.251 947.984 644.202 943.663 650.402C930.888 692.296 912.477 732.312 888.993 768.758C888.054 771.952 886.927 775.145 885.424 778.339C882.042 785.854 876.218 792.053 872.649 799.568C869.643 806.143 861.377 812.719 853.862 815.912C816.289 859.873 769.698 895.568 715.216 918.864C709.956 924.5 702.629 928.257 694.927 930.136L694.927 931.263C692.484 931.827 689.854 932.39 687.036 932.954C687.036 932.39 687.036 931.827 687.036 931.075L686.473 931.075C683.467 932.954 680.085 934.457 676.516 935.396C674.637 935.584 672.758 935.96 670.88 936.147C616.586 956.249 558.535 966.77 500.108 965.83L500.108 965.83C498.606 968.085 495.975 969.212 493.533 968.836C489.776 970.151 485.455 970.715 480.57 970.715C470.989 970.715 463.099 967.897 457.275 963.2C389.455 955.873 322.198 933.142 260.578 892.938C260.39 892.938 260.014 892.938 259.826 892.75C257.948 892.187 251.936 889.932 248.742 888.053C246.112 886.363 241.979 883.357 239.912 881.102C238.973 880.163 238.222 879.224 237.47 878.284C235.967 878.66 234.276 878.848 232.586 878.284C231.646 879.036 230.519 879.787 229.392 880.727C227.513 874.903 222.253 870.77 222.253 865.322C170.026 824.742 127.944 771.764 98.6364 713.337C93.7519 707.889 90.746 700.938 89.4309 693.611C75.3409 661.486 65.1961 628.045 59.1843 594.417C54.6755 580.703 51.6696 566.613 50.3546 552.147C49.791 546.887 50.7303 542.002 52.609 537.493C50.7303 501.987 52.7968 466.292 59.1843 431.348C57.3056 424.773 57.3056 418.198 59.56 411.998C61.6266 406.926 63.6931 402.793 66.1354 399.035C71.0199 380.061 76.8438 361.274 84.1706 343.051C84.7342 339.481 85.6736 335.912 86.9886 332.53C86.9886 331.967 86.9886 331.403 87.1765 330.652C87.1765 330.652 87.5523 330.84 87.7401 331.027C88.8673 328.773 90.1824 326.519 91.6853 324.64C118.175 256.068 179.419 202.338 225.259 149.172C229.204 147.106 232.961 145.603 236.719 147.481C266.402 125.689 297.4 108.217 329.337 94.5027C341.173 83.7943 356.766 76.6554 371.607 75.1524C375.74 74.7767 380.249 74.5888 384.946 74.5888C446.566 57.305 510.817 53.9234 575.819 63.3168C578.449 62.9411 581.079 62.5653 583.709 62.1896C584.273 62.1896 584.837 62.1896 585.4 62.3775C585.964 59.1837 585.4 58.6201 580.891 56.5536C585.964 51.4812 588.782 58.4322 590.66 63.1289C591.788 63.1289 593.103 63.5047 594.23 63.6925C598.551 65.0076 602.496 66.8863 606.253 68.5771C660.923 80.4127 713.338 101.83 760.492 131.7C764.25 133.203 768.195 134.706 771.952 136.585C777.212 139.215 781.909 142.409 786.794 145.603C796.375 151.614 804.265 158.753 809.713 166.832L816.289 166.832C814.41 168.71 812.719 169.086 811.216 168.898C836.766 188.248 858.935 210.229 878.097 234.276C882.606 237.657 886.175 241.603 889.745 246.299C895.005 252.875 898.387 260.014 902.52 267.34C903.647 269.219 904.399 271.286 905.15 273.352C940.093 330.84 959.444 396.781 964.704 464.225C966.019 473.055 966.77 482.073 967.334 491.09C967.334 494.472 967.146 497.853 966.207 501.047C966.207 538.057 962.074 575.067 954.183 611.137C953.432 619.028 951.741 627.106 950.614 635.184M971.091 621.282C971.091 621.282 972.594 621.846 973.346 622.034C973.158 624.1 972.782 626.167 972.594 628.233C970.716 627.857 969.025 627.67 965.643 626.918C968.085 624.288 969.401 622.785 970.903 621.094M969.401 637.439C969.401 637.439 968.837 636.499 968.649 636.124C970.152 635.184 971.655 634.245 973.158 633.306C973.346 633.681 973.721 634.245 973.909 634.621M969.401 392.46C969.401 392.46 969.401 391.145 969.401 390.581C970.903 390.206 972.219 389.83 973.721 389.454C976.164 393.775 972.219 395.842 969.588 392.46" fill="#000000" fill-rule="nonzero" opacity="1" stroke="none" vectornator:layerName="path"/>
</g>
</g>
</g>
</g>
</svg>
